<svg xmlns="http://www.w3.org/2000/svg" width="32" height="32" version="1">
 <circle style="opacity:0.2" cx="16" cy="17" r="14"/>
 <path style="fill:#384b55" d="m 16,16 v 14 a 14.009401,14 0 0 0 12.039329,-6.872852 14.009401,14 0 0 0 0.07798,-0.135351 z"/>
 <path style="fill:#83c092" d="M 16,16 V 30 A 14.009401,14 0 0 1 3.9606719,23.127148 14.009401,14 0 0 1 3.88269,22.991797 Z"/>
 <path style="fill:#e69875" d="M 16,16 V 2.0000004 a 14.009401,14 0 0 1 12.039329,6.8728511 14.009401,14 0 0 1 0.07798,0.135352 z"/>
 <path style="fill:#e69875" d="M 16,16 V 2.0000004 A 14.009401,14 0 0 0 3.9606719,8.8728515 14.009401,14 0 0 0 3.88269,9.0082035 Z"/>
 <path style="fill:#dbbc7f" d="M 16,16 3.8675038,23 A 14.009401,14 0 0 1 3.8038999,9.1442065 14.009401,14 0 0 1 3.8822059,9.0090414 Z"/>
 <path style="fill:#d699b6" d="M 16,16 28.132497,9.0000002 a 14.009401,14 0 0 1 0.0636,13.8557938 14.009401,14 0 0 1 -0.07831,0.135165 z"/>
 <circle style="opacity:0.2" cx="16" cy="17" r="11"/>
 <circle style="fill:#d3c6aa" cx="16" cy="16" r="11"/>
 <path style="opacity:0.1" transform="matrix(1.1555555,0,0,1.3856406,-8.9555546,-9.7846096)" d="m 26.5,19.330128 -3.75,2.165063 -3.75,2.165064 0,-4.330127 0,-4.330127 3.75,2.165063 z"/>
 <path style="fill:#7fbbb3" transform="matrix(1.1555555,0,0,1.3856406,-8.9555546,-10.78461)" d="m 26.5,19.330128 -3.75,2.165063 -3.75,2.165064 0,-4.330127 0,-4.330127 3.75,2.165063 z"/>
 <path style="opacity:0.2;fill:#d3c6aa" d="M 16 2 A 14 14 0 0 0 2 16 A 14 14 0 0 0 2.0214844 16.585938 A 14 14 0 0 1 16 3 A 14 14 0 0 1 29.978516 16.414062 A 14 14 0 0 0 30 16 A 14 14 0 0 0 16 2 z"/>
</svg>
