<svg xmlns="http://www.w3.org/2000/svg" width="32" height="32" version="1">
 <rect style="opacity:0.2" width="28" height="28" x="2" y="3" rx="2.8" ry="2.8"/>
 <rect style="fill:#d699b6" width="28" height="28" x="2" y="2" rx="2.8" ry="2.8"/>
 <path style="opacity:0.2;fill:none;stroke:#1e2326" d="M 9.3499996,9.5 H 22.649999 L 9.3499996,24.5 H 22.649999 Z"/>
 <path style="fill:none;stroke:#d3c6aa" d="M 9.3499996,8.5 H 22.649999 L 9.3499996,23.5 H 22.649999 Z"/>
 <path style="fill:#d3c6aa;opacity:0.2" d="M 4.8007812 2 C 3.2495813 2 2 3.2495813 2 4.8007812 L 2 5.8007812 C 2 4.2495813 3.2495813 3 4.8007812 3 L 27.199219 3 C 28.750419 3 30 4.2495813 30 5.8007812 L 30 4.8007812 C 30 3.2495813 28.750419 2 27.199219 2 L 4.8007812 2 z"/>
</svg>
