<svg xmlns="http://www.w3.org/2000/svg" height="32" width="32" version="1.1">
 <circle cx="16" cy="17" r="14" style="opacity:.2"/>
 <circle cx="16" cy="16" r="14" style="fill:#d3c6aa"/>
 <circle r="8" style="opacity:.2" cx="16" cy="17"/>
 <path d="m16 2a14 14 0 0 0 -14 14 14 14 0 0 0 0.0215 0.586 14 14 0 0 1 13.9785 -13.586 14 14 0 0 1 13.979 13.414 14 14 0 0 0 0.021 -0.414 14 14 0 0 0 -14 -14z" style="opacity:.2;fill:#d3c6aa"/>
 <circle r="8" style="fill:#e67e80" cx="16" cy="16"/>
 <path style="fill:#d699b6" d="m16 8a8 8 0 0 0 -4.238281 1.21875l4.238281 6.78125 4.236328-6.7773438a8 8 0 0 0 -4.236328 -1.2226562z"/>
 <path style="fill:#495156" d="m20.236328 9.2226562l-4.236328 6.7773438h8a8 8 0 0 0 -3.763672 -6.7773438z"/>
 <path style="fill:#dbbc7f" d="m16 16l-4.236328 6.777344a8 8 0 0 0 4.236328 1.222656 8 8 0 0 0 4.238281 -1.21875l-4.238281-6.78125z"/>
 <path style="fill:#a7c080" d="m16 16l4.238281 6.78125a8 8 0 0 0 3.761719 -6.78125h-8z"/>
 <path style="fill:#e69875" d="m8 16a8 8 0 0 0 3.763672 6.777344l4.236328-6.777344h-8z"/>
 <circle r="6" style="opacity:.1" cx="16" cy="17"/>
 <circle r="6" style="fill:#495156" cx="16" cy="16"/>
 <circle r="1.5" style="opacity:.2" cx="12.5" cy="14.5"/>
 <circle r="1.5" style="fill:#d3c6aa" cx="12.5" cy="13.5"/>
 <path style="opacity:.2;fill:#d3c6aa" d="m16 8a8 8 0 0 0 -8 8 8 8 0 0 0 0.0214844 0.576172 8 8 0 0 1 7.9785156 -7.576172 8 8 0 0 1 7.978516 7.423828 8 8 0 0 0 0.021484 -0.423828 8 8 0 0 0 -8 -8z"/>
</svg>
