<svg xmlns="http://www.w3.org/2000/svg" width="32" height="32" version="1">
 <circle style="opacity:0.2" cx="16" cy="17" r="14"/>
 <circle style="fill:#495156" cx="16" cy="16" r="14"/>
 <circle style="opacity:0.4" cx="16" cy="16" r="8"/>
 <circle opacity=".2" cx="16" cy="17" r="7"/>
 <circle fill="#384b55" cx="16" cy="16" r="7"/>
 <circle opacity=".2" cx="16" cy="17" r="4"/>
 <circle fill="#7fbbb3" cx="16" cy="16" r="4"/>
 <path style="opacity:0.1;fill:#d3c6aa" d="M 16 2 A 14 14 0 0 0 2 16 A 14 14 0 0 0 2.0352 16.5 A 14 14 0 0 1 16 3 A 14 14 0 0 1 29.98 16.279 A 14 14 0 0 0 30 16 A 14 14 0 0 0 16 2 z"/>
</svg>
