<svg xmlns="http://www.w3.org/2000/svg" width="32" height="32" version="1">
 <circle style="opacity:.2" cx="20" cy="21" r="10"/>
 <circle style="fill:#384b55" cx="20" cy="20" r="10"/>
 <circle style="opacity:.2" cx="20" cy="21" r="6"/>
 <circle style="fill:#d3c6aa" cx="20" cy="20" r="6"/>
 <circle style="opacity:.2" cx="12" cy="13" r="10"/>
 <circle style="fill:#7fbbb3" cx="12" cy="12" r="10"/>
 <circle style="opacity:.2" cx="12" cy="13" r="6"/>
 <circle style="fill:#d3c6aa" cx="12" cy="12" r="6"/>
 <path style="opacity:.2;stroke:#1e2326;stroke-linecap:round;fill:none" d="m19.506995 23.492946s-0.653434-4.700361-3-7c-2.346565-2.299642-6-3-6-3"/>
 <path style="stroke:#e69875;stroke-linecap:round;fill:none" d="m19.506995 22.492946s-0.653434-4.700361-3-7c-2.346565-2.299642-6-3-6-3"/>
 <path style="opacity:.2;stroke:#1e2326;stroke-linecap:round;fill:none" d="m12.501024 11.498619s0.653434 4.700361 3 7c2.346565 2.299642 6 3 6 3"/>
 <path style="stroke:#e69875;stroke-linecap:round;fill:none" d="m12.501024 10.498619s0.653434 4.700361 3 7c2.346565 2.299642 6 3 6 3"/>
 <path style="opacity:.2;fill:#d3c6aa" d="m12 2a10 10 0 0 0 -10 10 10 10 0 0 0 0.0214844 0.585938 10 10 0 0 1 9.9785156 -9.585938 10 10 0 0 1 9.978516 9.414062 10 10 0 0 0 0.021484 -0.414062 10 10 0 0 0 -10 -10z"/>
</svg>
