<svg xmlns="http://www.w3.org/2000/svg" width="32" height="32" version="1.1">
 <rect style="opacity:0.2" width="28" height="28" x="2" y="3" rx="2.6" ry="2.6"/>
 <rect style="fill:#e69875" width="28" height="28" x="2" y="2" rx="2.6" ry="2.6"/>
 <circle style="fill:none;stroke:#45443c" cx="16" cy="16" r="7.5"/>
 <path style="fill:#45443c" d="M 14,12 V 16 H 12 L 16,20 20,16 H 18 V 12 Z"/>
 <rect style="fill:#dbbc7f" width="6" height="3" x="13" y="27"/>
 <rect style="fill:#dbbc7f" width="6" height="3" x="13" y="2"/>
 <circle style="opacity:0.2" cx="24" cy="24" r="8"/>
 <circle style="fill:#83c092" cx="24" cy="23" r="8"/>
 <path style="fill:#d3c6aa" d="M 23,18 V 22 H 19 V 24 H 23 V 28 H 25 V 24 H 29 V 22 H 25 V 18 Z"/>
 <path style="fill:#d3c6aa;opacity:0.2" d="M 4.5996 2 C 3.1592 2 2 3.1592 2 4.5996 L 2 5.5996 C 2 4.1592 3.1592 3 4.5996 3 L 27.4 3 C 28.841 3 30 4.1592 30 5.5996 L 30 4.5996 C 30 3.1592 28.841 2 27.4 2 L 4.5996 2 z"/>
</svg>
