<svg xmlns="http://www.w3.org/2000/svg" width="32" height="32" version="1.1">
 <circle style="opacity:0.2" cx="16" cy="17" r="14"/>
 <circle style="fill:#83c092" cx="16" cy="16" r="14"/>
 <circle style="opacity:0.2" cx="17" cy="16" r="11"/>
 <circle style="fill:#d3c6aa" cx="17" cy="15" r="11"/>
 <path style="fill:#a7c080" d="m 14,8.5 v 13 l 11,-6.500001 z"/>
 <path style="fill:#d3c6aa;opacity:0.1" d="M 16 2 A 14 14 0 0 0 2 16 A 14 14 0 0 0 2.0351562 16.5 A 14 14 0 0 1 16 3 A 14 14 0 0 1 29.980469 16.279297 A 14 14 0 0 0 30 16 A 14 14 0 0 0 16 2 z"/>
</svg>
