<svg version="1.1" viewBox="0 0 16 16" xmlns="http://www.w3.org/2000/svg">
    <defs>
        <style id="current-color-scheme" type="text/css">.ColorScheme-Text { color:#fefefe; } .ColorScheme-Highlight { color:#3fbdbd; } .ColorScheme-NeutralText { color:#73d0d0; } .ColorScheme-PositiveText { color:#5dc9c9; } .ColorScheme-NegativeText { color:#339b9b; }</style>
    </defs>
    <path class="ColorScheme-Text" d="m8 1a7 7 0 0 0-7 7 7 7 0 0 0 7 7 7 7 0 0 0 7-7 7 7 0 0 0-7-7zm0 2a5 5 0 0 1 5 5 5 5 0 0 1-5 5 5 5 0 0 1-5-5 5 5 0 0 1 5-5zm-0.0605469 1a4 3.999999 0 0 0-3.9394531 4 4 3.999999 0 0 0 4 4 4 3.999999 0 0 0 4-4 4 3.999999 0 0 0-4-4 4 3.999999 0 0 0-0.0078125 0 4 3.999999 0 0 0-0.0527344 0zm-0.9394531 2 3 2-3 2v-2-2z" fill="currentColor"/>
</svg>
