<svg xmlns="http://www.w3.org/2000/svg" viewBox="0 0 22 22" xmlns:xlink="http://www.w3.org/1999/xlink">
 <defs>
  <path fill="url(#0)" id="H" d="m24 8c-8.863992 0-16 7.136008-16 16h16v-16"/>
  <path fill="url(#3)" id="I" d="m408.57143 539.798c8.86399 0 16-7.13601 16-16h-16v16"/>
  <path fill="url(#1)" id="J" d="m408.57143 539.798c-8.86399 0-16-7.13601-16-16h16v16"/>
  <linearGradient id="3" y1="523.8" y2="539.8" x1="424.57" x2="408.57" gradientUnits="userSpaceOnUse">
   <stop stop-color="#99dddd"/>
   <stop offset="0.312" stop-color="#a4e0e0"/>
   <stop offset="0.562" stop-color="#a8e2e2"/>
   <stop offset="0.75" stop-color="#67cccc"/>
   <stop offset="1" stop-color="#3bb1b1"/>
  </linearGradient>
  <linearGradient id="0" y1="24" y2="8" x1="8" x2="24" gradientUnits="userSpaceOnUse">
   <stop stop-color="#256f6f"/>
   <stop offset="0.312" stop-color="#277373"/>
   <stop offset="0.562" stop-color="#309292"/>
   <stop offset="0.75" stop-color="#36a2a2"/>
   <stop offset="1" stop-color="#39acac"/>
  </linearGradient>
  <linearGradient id="2" y1="523.8" y2="507.8" x1="424.57" x2="408.57" gradientUnits="userSpaceOnUse">
   <stop stop-color="#94dcdc"/>
   <stop offset="0.312" stop-color="#8ad8d8"/>
   <stop offset="0.562" stop-color="#72d0d0"/>
   <stop offset="0.75" stop-color="#51c5c5"/>
   <stop offset="1" stop-color="#3aafb0"/>
  </linearGradient>
  <linearGradient id="1" y1="523.8" y2="539.8" x1="392.57" x2="408.57" gradientUnits="userSpaceOnUse">
   <stop stop-color="#236969"/>
   <stop offset="0.312" stop-color="#236969"/>
   <stop offset="0.562" stop-color="#246d6e"/>
   <stop offset="0.75" stop-color="#2a7f80"/>
   <stop offset="1" stop-color="#2a7f80"/>
  </linearGradient>
  <style type="text/css" id="current-color-scheme">
   .ColorScheme-Text {
    color:#fefefe;
   }
  </style>
 </defs>
 <g transform="matrix(1.093343,0,0,1.0933518,-1.0272637,-1128.5694)">
  <g transform="matrix(0.38637 0.10353 -0.10353 0.38637 -92.63 796.68)">
   <use xlink:href="#H" clip-path="url(#5)" transform="matrix(1 0 0 1 384.57 499.8)"/>
   <use xlink:href="#J" clip-path="url(#6)"/>
   <path fill="url(#2)" d="m408.57143 507.798c8.86399 0 16 7.13601 16 16h-16v-16" clip-path="url(#7)"/>
   <use xlink:href="#I" clip-path="url(#8)"/>
  </g>
  <g opacity="0.7" transform="matrix(0.4 0 0 0.4 -152.43 831.84)">
   <use filter="url(#4)" xlink:href="#H" clip-path="url(#9)" transform="matrix(1 0 0 1 384.57 499.8)"/>
   <use filter="url(#4)" xlink:href="#J" clip-path="url(#A)"/>
   <use filter="url(#4)" xlink:href="#I" clip-path="url(#B)"/>
   <path fill="url(#2)" filter="url(#4)" d="m408.57143 507.798c8.86399 0 16 7.13601 16 16h-16v-16" clip-path="url(#C)"/>
  </g>
  <use opacity="0.35" xlink:href="#H" clip-path="url(#9)" transform="matrix(0.28284 0.28284 -0.28284 0.28284 11 1027.79)"/>
  <path opacity="0.35" fill="url(#1)" d="m408.57143 539.798c-8.86399 0-16-7.13601-16-16h16v16" clip-path="url(#A)" transform="matrix(0.28284 0.28284 -0.28284 0.28284 43.591 777.65)"/>
  <use opacity="0.35" xlink:href="#I" clip-path="url(#B)" transform="matrix(0.28284 0.28284 -0.28284 0.28284 43.591 777.65)"/>
  <path opacity="0.35" fill="url(#2)" d="m408.57143 507.798c8.86399 0 16 7.13601 16 16h-16v-16" clip-path="url(#C)" transform="matrix(0.28284 0.28284 -0.28284 0.28284 43.591 777.65)"/>
  <g transform="matrix(0.10353 0.38637 -0.38637 0.10353 171.08 829.27)">
   <use opacity="0.3" xlink:href="#H" clip-path="url(#D)" transform="matrix(1 0 0 1 384.57 499.8)"/>
   <use opacity="0.3" xlink:href="#J" clip-path="url(#E)"/>
   <use opacity="0.3" xlink:href="#I" clip-path="url(#F)"/>
   <path opacity="0.3" fill="url(#2)" d="m408.57143 507.798c8.86399 0 16 7.13601 16 16h-16v-16" clip-path="url(#G)"/>
  </g>
 </g>
 <path d="M 21 15.7075 L 17.5 19.2075 L 14 15.7075 L 14.707 15.0005 L 17 17.2935 L 17 9.99997 C 17 6.68627 14.3137 3.99997 11 3.99997 C 7.68628 3.99997 5 6.68627 5 9.99997 L 4 9.99997 C 4 6.13397 7.134 2.99997 11 2.99997 C 14.866 2.99997 18 6.13397 18 9.99997 L 18 17.2935 L 20.293 15.0005 L 21 15.7075 Z" class="ColorScheme-Text" style="fill:currentColor; fill-opacity:1; stroke:none"/>
</svg>
