<svg xmlns="http://www.w3.org/2000/svg" width="22" height="22" version="1">
 <circle style="opacity:0.2" cx="11" cy="11.5" r="10"/>
 <circle style="fill:#d3c6aa" cx="11" cy="11" r="10"/>
 <g style="opacity:0.1" transform="translate(-1,-0.499773)">
  <path d="m 9,13.75 10e-7,-3.5 3,-1.75 3,1.75 -10e-7,3.5 -3,1.75 z"/>
  <path d="M 12.458656,4.541227 V 7.6009222 L 15.655273,9.3361525 18.31912,7.737844 Z"/>
  <path d="M 11.393117,4.541227 V 7.6009222 L 8.1964999,9.3361525 5.5326524,7.737844 Z"/>
  <path d="m 18.838038,8.5231462 -2.649996,1.5295808 0.0959,3.636152 L 19,15.196617 Z"/>
  <path d="m 5.1618449,8.5231462 2.6498889,1.5299008 -0.095675,3.635886 -2.716059,1.507737 z"/>
  <path d="m 12.458656,19.458773 v -3.059695 l 3.196617,-1.73523 2.663847,1.598308 z"/>
  <path d="M 11.393117,19.458773 V 16.399078 L 8.1964999,14.663848 5.5326524,16.262156 Z"/>
 </g>
 <g transform="translate(-1,-1)">
  <path style="fill:#dbbc7f" d="m 9,13.75 10e-7,-3.5 3,-1.75 3,1.75 -10e-7,3.5 -3,1.75 z"/>
  <path style="fill:#a7c080" d="M 12.458656,4.541227 V 7.6009222 L 15.655273,9.3361525 18.31912,7.737844 Z"/>
  <path style="fill:#384b55" d="M 11.393117,4.541227 V 7.6009222 L 8.1964999,9.3361525 5.5326524,7.737844 Z"/>
  <path style="fill:#dbbc7f" d="m 18.838038,8.5231462 -2.649996,1.5295808 0.0959,3.636152 L 19,15.196617 Z"/>
  <path style="fill:#495156" d="m 5.1618449,8.5231462 2.6498889,1.5299008 -0.095675,3.635886 -2.716059,1.507737 z"/>
  <path style="fill:#e67e80" d="m 12.458656,19.458773 v -3.059695 l 3.196617,-1.73523 2.663847,1.598308 z"/>
  <path style="fill:#d699b6" d="M 11.393117,19.458773 V 16.399078 L 8.1964999,14.663848 5.5326524,16.262156 Z"/>
 </g>
 <path style="opacity:0.2;fill:#d3c6aa" d="M 11,1 A 10,10 0 0 0 1,11 10,10 0 0 0 1.0107422,11.291016 10,10 0 0 1 11,1.5 10,10 0 0 1 20.989258,11.208985 10,10 0 0 0 21,11 10,10 0 0 0 11,1 Z"/>
</svg>
