<svg width="22" height="22" version="1.1" xmlns="http://www.w3.org/2000/svg">
 <path d="m9 1.5v4h4v-4zm4 4v4h4v-4zm4 4v4h4v-4zm0 4h-4v4h4zm-4 4h-4v4h4zm-4 0v-4h-4v4zm-4-4v-4h-4v4zm0-4h4v-4h-4z" style="opacity:.2"/>
 <rect x="1" y="9" width="4" height="4" style="fill:#a7c080"/>
 <rect x="9" y="17" width="4" height="4" style="fill:#495156"/>
 <rect x="1" y="9" width="4" height="4" style="fill:#a7c080"/>
 <rect x="13" y="13" width="4" height="4" style="fill:#d699b6"/>
 <rect transform="scale(-1,1)" x="-21" y="9" width="4" height="4" style="fill:#d699b6"/>
 <rect x="5" y="13" width="4" height="4" style="fill:#83c092"/>
 <rect x="5" y="5" width="4" height="4" style="fill:#dbbc7f"/>
 <rect x="13" y="5" width="4" height="4" style="fill:#e69875"/>
 <rect x="9" y="1" width="4" height="4" style="fill:#e67e80"/>
 <path d="m9 5.5v4h-4v4h4v4h4v-4h4v-4h-4v-4z" style="opacity:.2"/>
 <path d="m9 5v4h-4v4h4v4h4v-4h4v-4h-4v-4h-4z" style="fill:#e69875"/>
 <path d="m9 1v0.5h4v-0.5h-4zm-4 4v0.5h4v-0.5h-4zm8 0v0.5h4v-0.5h-4zm-12 4v0.5h4v-0.5h-4zm16 0v0.5h4v-0.5h-4z" style="fill:#d3c6aa;opacity:.2"/>
</svg>
