<svg xmlns="http://www.w3.org/2000/svg" width="22" height="22" version="1.1">
 <path style="opacity:0.2" d="M 11,1.5 A 6.5,6.5 0 0 0 4.5,8 6.5,6.5 0 0 0 4.508789,8.2314455 6.5,6.5 0 0 0 1,14 6.5,6.5 0 0 0 7.5,20.5 6.5,6.5 0 0 0 11.006836,19.472656 6.5,6.5 0 0 0 14.5,20.5 6.5,6.5 0 0 0 21,14 6.5,6.5 0 0 0 17.488281,8.234375 6.5,6.5 0 0 0 17.5,8 6.5,6.5 0 0 0 11,1.5 Z"/>
 <circle style="fill:#495156" cx="14.5" cy="13.5" r="6.5"/>
 <circle style="fill:#e67e80" cx="11" cy="7.5" r="6.5"/>
 <circle style="fill:#a7c080" cx="7.5" cy="13.5" r="6.5"/>
 <path style="fill:#d699b6" d="m 14.5,7 a 6.5,6.5 0 0 0 -3.496094,1.033203 6.5,6.5 0 0 1 2.987305,5.227539 6.5,6.5 0 0 0 3.49707,-5.526367 A 6.5,6.5 0 0 0 14.5,7 Z"/>
 <path style="fill:#dbbc7f" d="M 7.5,7 A 6.5,6.5 0 0 0 4.508789,7.7314455 6.5,6.5 0 0 0 8.011719,13.260742 6.5,6.5 0 0 1 10.991211,8.0283205 6.5,6.5 0 0 0 7.5,7 Z"/>
 <path style="fill:#d3c6aa" d="M 10.993164,8.027344 A 6.5,6.5 0 0 0 8.011719,13.265625 6.5,6.5 0 0 0 11,14 6.5,6.5 0 0 0 13.988281,13.270508 6.5,6.5 0 0 0 10.993164,8.027344 Z"/>
 <path style="fill:#7fbbb3" d="M 8.011719,13.265625 A 6.5,6.5 0 0 0 8,13.5 6.5,6.5 0 0 0 11.006836,18.972656 6.5,6.5 0 0 0 14,13.5 6.5,6.5 0 0 0 13.988281,13.270508 6.5,6.5 0 0 1 11,14 6.5,6.5 0 0 1 8.011719,13.265625 Z"/>
 <path style="opacity:0.2;fill:#d3c6aa" d="M 11,1 A 6.5,6.5 0 0 0 4.5,7.5 6.5,6.5 0 0 0 4.510742,7.790039 6.5,6.5 0 0 1 11,1.5 6.5,6.5 0 0 1 17.489258,7.709961 6.5,6.5 0 0 0 17.5,7.5 6.5,6.5 0 0 0 11,1 Z"/>
</svg>
