<svg xmlns="http://www.w3.org/2000/svg" width="22" height="22" version="1.1">
 <rect style="opacity:0.2" width="22" height="8" x="0" y="13.5" rx="1.5" ry="1.5"/>
 <rect style="fill:#a7c080" width="2" height="19" x="12" y="1"/>
 <rect style="fill:#dbbc7f" width="2" height="19" x="10" y="1"/>
 <rect style="fill:#d699b6" width="2" height="19" x="16" y="1"/>
 <rect style="fill:#495156" width="2" height="19" x="14" y="1"/>
 <rect style="fill:#e69875" width="2" height="19" x="4" y="1"/>
 <rect style="fill:#495156" width="2" height="19" x="2" y="1"/>
 <rect style="fill:#e69875" width="2" height="19" x="8" y="1"/>
 <rect style="fill:#e67e80" width="2" height="19" x="6" y="1"/>
 <rect style="fill:#495156" width="2" height="19" x="18" y="1"/>
 <rect style="fill:#d3c6aa" width="22" height="8" x="0" y="13" rx="1.5" ry="1.5"/>
 <path style="opacity:0.2;fill:none;stroke:#1e2326" d="m 3,20 h 1.5 v -5 h 7 v 5 h 3 v -5 h 3.000102 v 5 H 19"/>
 <path style="fill:none;stroke:#d3c6aa" d="m 3,19.5 h 1.5 v -5 h 7 v 5 h 3 v -5 h 3.000102 v 5 H 19"/>
 <path style="opacity:0.2;fill:#d3c6aa" d="M 1.5,13 C 0.669,13 0,13.669 0,14.5 V 15 c 0,-0.831 0.669,-1.5 1.5,-1.5 h 19 c 0.831,0 1.5,0.669 1.5,1.5 V 14.5 C 22,13.669 21.331,13 20.5,13 Z"/>
 <rect style="opacity:0.1;fill:#d3c6aa" width="18" height=".5" x="2" y="1"/>
</svg>
