<svg xmlns="http://www.w3.org/2000/svg" viewBox="0 0 16 16">
 <g color="#1e2326" transform="translate(-421.71-531.79)">
  <path fill="#e69875" d="m425.71 535.79h2v2h-2z"/>
  <path fill="#83c092" d="m423.71 539.79h2v2h-2z"/>
  <path fill="#dbbc7f" d="m431.71 535.79h2v2h-2z"/>
  <path fill="#495156" d="m423.71 535.79h2v2h-2z"/>
  <path fill="#e67e80" d="m429.71 535.79h2v2h-2z"/>
  <path fill="#83c092" d="m427.71 535.79h2v2h-2z"/>
  <path fill="#dbbc7f" d="m427.71 537.79h2v2h-2z"/>
  <path fill="#495156" d="m425.71 537.79h2v2h-2z"/>
  <path fill="#e67e80" d="m423.71 537.79h2v2h-2z"/>
  <path fill="#83c092" d="m431.71 537.79h2v2h-2z"/>
  <path fill="#e69875" d="m429.71 537.79h2v2h-2z"/>
  <path fill="#dbbc7f" d="m431.71 539.79h2v2h-2z"/>
  <path fill="#495156" d="m429.71 539.79h2v2h-2z"/>
  <path fill="#e67e80" d="m427.71 539.79h2v2h-2z"/>
  <path fill="#e69875" d="m425.71 539.79h2v2h-2z"/>
  <path fill="#dbbc7f" d="m429.71 541.79h2v2h-2z"/>
  <path fill="#495156" d="m427.71 541.79h2v2h-2z"/>
  <path fill="#e67e80" d="m425.71 541.79h2v2h-2z"/>
  <path fill="#83c092" d="m431.71 541.79h2v2h-2z"/>
  <path fill="#dbbc7f" d="m425.71 543.79h2v2h-2z"/>
  <path fill="#495156" d="m423.71 543.79h2v2h-2z"/>
  <path fill="#e67e80" d="m433.71 537.79h2v2h-2z"/>
  <path fill="#495156" d="m433.71 539.79h2v2h-2z"/>
  <path fill="#e69875" d="m423.71 541.79h2v2h-2z"/>
  <path fill="#83c092" d="m433.71 535.79h2v2h-2z"/>
  <path fill="#dbbc7f" d="m423.71 533.79h2v2h-2z"/>
  <path fill="#495156" d="m427.71 533.79h2v2h-2z"/>
  <path fill="#e67e80" d="m425.71 533.79h2v2h-2z"/>
  <path fill="#83c092" d="m431.71 533.79h2v2h-2z"/>
  <path fill="#e69875" d="m433.71 533.79h2v2h-2z"/>
  <path fill="#dbbc7f" d="m429.71 533.79h2v2h-2z"/>
  <path fill="#e67e80" d="m433.71 541.79h2v2h-2z"/>
  <path fill="#dbbc7f" d="m431.71 543.79h2v2h-2z"/>
  <path fill="#e67e80" d="m429.71 543.79h2v2h-2z"/>
  <g fill="#83c092">
   <path d="m427.71 543.79h2v2h-2z"/>
   <path d="m433.71 543.79h2v2h-2z"/>
  </g>
 </g>
</svg>
