<svg xmlns="http://www.w3.org/2000/svg" width="16" height="16" version="1">
 <circle style="fill:#e69875" cx="8" cy="8" r="7.5"/>
 <path style="fill:#495156" d="M 8,8 15.727,5.93 A 8,8 0 0 0 10.068,0.281 Z"/>
 <path style="fill:#83c092" d="m 8,8 5.657,5.656 a 8,8 0 0 0 2.06,-7.724 z"/>
 <path style="fill:#dbbc7f" d="M 8,8 5.93,15.727 A 8,8 0 0 0 13.65,13.65 Z"/>
 <path style="fill:#e69875" d="m 8,8 -7.727,2.07 a 8,8 0 0 0 5.659,5.648 z"/>
 <path style="fill:#e67e80" d="M 8,8 2.343,2.344 a 8,8 0 0 0 -2.06,7.724 z"/>
 <path style="fill:#4c3743" d="M 8,8 10.07,0.273 A 8,8 0 0 0 2.35,2.35 Z"/>
 <path style="fill:#d3c6aa" d="m 8,3 a 5,5 0 1 0 5,5 V 4.5 C 13,3.669 12.331,3 11.5,3 Z m 3,1 a 1,1 0 0 1 1,1 1,1 0 0 1 -1,1 1,1 0 0 1 -1,-1 1,1 0 0 1 1,-1 z"/>
</svg>
