<svg xmlns="http://www.w3.org/2000/svg" width="16" height="16" version="1">
 <rect style="fill:#374145" width="16" height="16" x="0" y="0" rx="4.8" ry="4.8"/>
 <path style="fill:#83c092" d="M 9,9.9999997 A 3,3 0 0 1 6,13 3,3 0 0 1 3,9.9999997 3,3 0 0 1 6,7 3,3 0 0 1 9,9.9999997 Z"/>
 <path style="fill:#495156" d="M 7,9.9999997 A 3,3 0 0 0 9.9999999,13 3,3 0 0 0 13,9.9999997 3,3 0 0 0 9.9999999,7 3,3 0 0 0 7,9.9999997 Z"/>
 <path style="fill:#e67e80" d="M 11,6.0000002 A 3.0000002,3.0000002 0 0 1 7.9999998,9 3.0000002,3.0000002 0 0 1 4.9999997,6.0000002 3.0000002,3.0000002 0 0 1 7.9999998,3 3.0000002,3.0000002 0 0 1 11,6.0000002 Z"/>
 <path style="fill:#d699b6" d="M 10 7 A 3 3 0 0 0 7.21875 8.8925781 A 3.0000002 3.0000002 0 0 0 8 9 A 3.0000002 3.0000002 0 0 0 10.78125 7.1074219 A 3 3 0 0 0 10 7 z"/>
 <path style="fill:#dbbc7f" d="M 6 7 A 3 3 0 0 0 5.21875 7.1074219 A 3.0000002 3.0000002 0 0 0 8 9 A 3.0000002 3.0000002 0 0 0 8.78125 8.8925781 A 3 3 0 0 0 6 7 z"/>
 <path style="fill:#7fbbb3" d="M 8 7.7675781 A 3 3 0 0 0 7 10 A 3 3 0 0 0 8.0019531 12.234375 A 3 3 0 0 0 9 10 A 3 3 0 0 0 8 7.7675781 z"/>
 <path style="fill:#d3c6aa" d="M 8 7.7675781 A 3 3 0 0 0 7.2167969 8.8925781 A 3.0000002 3.0000002 0 0 0 8 9 A 3.0000002 3.0000002 0 0 0 8.7832031 8.8925781 A 3 3 0 0 0 8 7.7675781 z"/>
</svg>
