<svg xmlns="http://www.w3.org/2000/svg" width="16" height="16" version="1">
 <rect fill="#e69875" width="16" height="16" x="0" y="0" rx="8" ry="8"/>
 <ellipse fill="#495156" cx="5" cy="5" rx="1" ry="1"/>
 <path fill="#495156" d="m5 10a3.4689 4.0002 0 0 0 3.0013 2 3.4689 4.0002 0 0 0 2.9987 -2h-0.4214a3.4689 4.0002 0 0 1 -2.5777 1.333 3.4689 4.0002 0 0 1 -2.5786 -1.333h-0.4227z"/>
 <path fill="#495156" d="m8 6a3 2 0 0 0 -3 2 3 2 0 0 0 3 2 3 2 0 0 0 3 -2 3 2 0 0 0 -3 -2z"/>
 <ellipse fill="#495156" cx="11" cy="5" rx="1" ry="1"/>
</svg>
