<svg xmlns="http://www.w3.org/2000/svg" width="16" height="16" version="1.1">
 <path style="fill:#495156" d="M 4,0 H 8 L 14,6 V 14 C 14,15.11 13.11,16 12,16 H 4 C 2.89,16 2,15.11 2,14 V 2 C 2,0.89 2.89,0 4,0 Z"/>
 <path style="fill:#4f5b58" d="m 10,0 h 4 v 4 z"/>
 <path style="fill:#d3c6aa" d="M 4,2 H 8 L 9,5 12,6 V 14 H 4 Z"/>
 <path style="fill:#9da9a0" d="m 8,2 4,4 H 8 Z"/>
 <rect style="fill:#384b55" width="2" height="3" x="4" y="10"/>
 <rect style="fill:#e69875" width="2" height="5" x="6" y="8"/>
 <rect style="fill:#dbbc7f" width="2" height="2" x="8" y="11"/>
 <rect style="fill:#a7c080" width="2" height="3" x="10" y="10"/>
</svg>
