<svg width="16" height="16" version="1.1" xmlns="http://www.w3.org/2000/svg">
 <ellipse cx="10.5" cy="6" rx="4.5" ry="6" style="fill:#4c3743"/>
 <ellipse cx="5.5" cy="6" rx="4.5" ry="6" style="fill:#4c3743"/>
 <ellipse cx="6" cy="6" rx="3" ry="4" style="fill:#d3c6aa"/>
 <ellipse cx="10" cy="6" rx="3" ry="4" style="fill:#d3c6aa"/>
 <circle cx="8" cy="11" r="5" style="fill:#d699b6"/>
 <circle cx="8" cy="11" r="3" style="fill:#495156"/>
 <path d="m8 8a1 1 0 0 0-1 1 1 1 0 0 0 1 1 1 1 0 0 0 1-1 1 1 0 0 0-1-1zm-2 2a1 1 0 0 0-1 1 1 1 0 0 0 1 1 1 1 0 0 0 1-1 1 1 0 0 0-1-1zm4 0a1 1 0 0 0-1 1 1 1 0 0 0 1 1 1 1 0 0 0 1-1 1 1 0 0 0-1-1zm-2 2a1 1 0 0 0-1 1 1 1 0 0 0 1 1 1 1 0 0 0 1-1 1 1 0 0 0-1-1z" style="opacity:.3"/>
 <path d="M 7,5.5 A 0.5,0.5 0 0 1 6.5,6 0.5,0.5 0 0 1 6,5.5 0.5,0.5 0 0 1 6.5,5 0.5,0.5 0 0 1 7,5.5 Z" style="fill:#374145"/>
 <path d="M 10,5.5 A 0.5,0.5 0 0 1 9.5,6 0.5,0.5 0 0 1 9,5.5 0.5,0.5 0 0 1 9.5,5 0.5,0.5 0 0 1 10,5.5 Z" style="fill:#374145"/>
</svg>
