<svg xmlns="http://www.w3.org/2000/svg" width="16" height="16" version="1">
 <rect style="fill:#d3c6aa" width="16" height="16" x="0" y="0" rx="8" ry="8"/>
 <rect style="fill:#495156" width="14" height="14" x="1" y="1" rx="8" ry="8"/>
 <circle style="opacity:0.4" cx="8" cy="8" r="6"/>
 <circle style="fill:#d699b6" cx="8" cy="8" r="5"/>
 <path style="fill:#d699b6" d="M 8 5 A 3 3 0 0 0 5 8 A 3 3 0 0 0 8 11 A 3 3 0 0 0 11 8 A 3 3 0 0 0 8 5 z M 8 6 A 2 2 0 0 1 10 8 A 2 2 0 0 1 8 10 A 2 2 0 0 1 6 8 A 2 2 0 0 1 8 6 z"/>
 <circle style="fill:#d699b6" cx="6.5" cy="6.5" r="1.5"/>
 <circle style="fill:#495156" cx="10" cy="10" r="1"/>
</svg>
