<svg xmlns="http://www.w3.org/2000/svg" width="16" height="16" version="1">
 <rect style="fill:#4c3743" width="16" height="16" x="0" y="0" rx=".8" ry=".8"/>
 <rect style="fill:#83c092" width="2" height="2" x="2" y="8"/>
 <rect style="fill:#e67e80" width="2" height="2" x="4" y="8"/>
 <rect style="fill:#495156" width="2" height="2" x="6" y="8"/>
 <rect style="fill:#9da9a0" width="2" height="2" x="8" y="8"/>
 <rect style="fill:#dbbc7f" width="2" height="2" x="10" y="8"/>
 <rect style="fill:#d3c6aa" width="2" height="2" x="12" y="8"/>
 <rect style="fill:#495156" width="2" height="2" x="2" y="6"/>
 <rect style="fill:#d3c6aa" width="2" height="2" x="4" y="6"/>
 <rect style="fill:#83c092" width="2" height="2" x="6" y="6"/>
 <rect style="fill:#d3c6aa" width="2" height="2" x="8" y="6"/>
 <rect style="fill:#9da9a0" width="2" height="2" x="10" y="6"/>
 <rect style="fill:#495156" width="2" height="2" x="12" y="6"/>
 <rect style="fill:#d3c6aa" width="2" height="2" x="2" y="4"/>
 <rect style="fill:#dbbc7f" width="2" height="2" x="4" y="4"/>
 <rect style="fill:#dbbc7f" width="2" height="2" x="6" y="4"/>
 <rect style="fill:#d699b6" width="2" height="2" x="8" y="4"/>
 <rect style="fill:#dbbc7f" width="2" height="2" x="10" y="4"/>
 <rect style="fill:#dbbc7f" width="2" height="2" x="4" y="10"/>
 <rect style="fill:#d699b6" width="2" height="2" x="6" y="10"/>
 <rect style="fill:#e67e80" width="2" height="2" x="8" y="10"/>
 <rect style="fill:#dbbc7f" width="2" height="2" x="10" y="10"/>
 <rect style="fill:#e67e80" width="2" height="2" x="12" y="10"/>
 <rect style="fill:#495156" width="2" height="2" x="6" y="12"/>
 <rect style="fill:#d3c6aa" width="2" height="2" x="8" y="12"/>
 <rect style="fill:#83c092" width="2" height="2" x="10" y="12"/>
 <rect style="fill:#d699b6" width="2" height="2" x="12" y="12"/>
 <rect style="fill:#dbbc7f" width="2" height="2" x="2" y="2"/>
 <rect style="fill:#e67e80" width="2" height="2" x="4" y="2"/>
 <rect style="fill:#dbbc7f" width="2" height="2" x="6" y="2"/>
 <rect style="fill:#495156" width="2" height="2" x="8" y="2"/>
</svg>
