<svg xmlns="http://www.w3.org/2000/svg" width="16" height="16" version="1">
 <path style="fill:#dbbc7f" d="M 1.1,4 A 8,8 0 0 1 12,1.1 8,8 0 0 1 14.9,12 L 8,8 Z"/>
 <path style="fill:#e69875" d="M 14.9,12 A 8,8 0 0 1 8,16 8,8 0 0 1 1.1,12 8,8 0 0 1 1.1,4"/>
 <circle style="fill:#374145" cx="8" cy="8" r="6"/>
 <path style="fill:#e69875;stroke:#e69875;stroke-linejoin:round" d="M 15.5,10.5 H 11.5 L 15.5,14.5 Z"/>
 <path style="fill:#dbbc7f;stroke:#dbbc7f;stroke-linejoin:round" d="M 0.5,5.5 H 4.5 L 0.5,1.5 Z"/>
 <rect style="fill:#e69875" width="6" height="2" x="5" y="7" rx="1" ry="1"/>
</svg>
