<svg xmlns="http://www.w3.org/2000/svg" width="16" height="16" version="1.1">
 <circle style="fill:#a7c080" cx="8" cy="8" r="8"/>
 <path style="fill:#d3c6aa" d="m6.000001 4a3.9999999 3.9999999 0 0 0 -4 4 3.9999999 3.9999999 0 0 0 4 4 3.9999999 3.9999999 0 0 0 4 -4 3.9999999 3.9999999 0 0 0 -4 -4zm0 2a1.9999999 1.9999999 0 0 1 2 2 1.9999999 1.9999999 0 0 1 -2 2 1.9999999 1.9999999 0 0 1 -2 -2 1.9999999 1.9999999 0 0 1 2 -2z"/>
 <rect style="fill:#d3c6aa" width="6" height="2" x="8" y="7"/>
 <rect style="fill:#d3c6aa" width="2" height="1" x="9" y="-13" transform="rotate(90)"/>
</svg>
