<svg xmlns="http://www.w3.org/2000/svg" width="22" height="22" version="1.1">
 <defs>
  <style id="current-color-scheme" type="text/css">
   .ColorScheme-Text { color:#45443c; } .ColorScheme-Highlight { color:#495156; } .ColorScheme-NeutralText { color:#e69875; } .ColorScheme-PositiveText { color:#83c092; } .ColorScheme-NegativeText { color:#e67e80; }
  </style>
 </defs>
 <path style="fill:currentColor" class="ColorScheme-Text" d="M 9,4 A 2,2 0 0 0 7,6 2,2 0 0 0 9,8 2,2 0 0 0 11,6 2,2 0 0 0 9,4 Z m 0,5 a 2,2 0 0 0 -2,2 2,2 0 0 0 2,2 2,2 0 0 0 2,-2 2,2 0 0 0 -2,-2 z m 5,0 a 2,2 0 0 0 -2,2 2,2 0 0 0 2,2 2,2 0 0 0 2,-2 2,2 0 0 0 -2,-2 z m -5,5 a 2,2 0 0 0 -2,2 2,2 0 0 0 2,2 2,2 0 0 0 2,-2 2,2 0 0 0 -2,-2 z"/>
</svg>
