<svg xmlns="http://www.w3.org/2000/svg" width="24" height="24" version="1">
 <g transform="translate(1,1)">
  <path fill="#e67e80" d="m11 1h-9c-0.554 0-1 0.446-1 1v9h10z"/>
  <path fill="#83c092" d="m11 1h9c0.554 0 1 0.446 1 1v9h-10z"/>
  <path fill="#dbbc7f" d="m11 21h-9c-0.554 0-1-0.446-1-1v-9h10z"/>
  <path fill="#495156" d="m11 21h9c0.554 0 1-0.446 1-1v-9h-10z"/>
  <path fill="#d3c6aa" opacity=".2" d="m2 1c-0.554 0-1 0.446-1 1v0.5c0-0.554 0.446-1 1-1h18c0.554 0 1 0.446 1 1v-0.5c0-0.554-0.446-1-1-1h-18z"/>
  <path opacity=".2" d="m2 21.5c-0.554 0-1-0.446-1-1v-0.5c0 0.554 0.446 1 1 1h18c0.554 0 1-0.446 1-1v0.5c0 0.554-0.446 1-1 1h-18z"/>
 </g>
 <rect style="fill:#d3c6aa" width="14" height="14" x="5" y="5"/>
 <rect style="opacity:0.2" width="14" height=".5" x="5" y="19"/>
</svg>
