<svg xmlns="http://www.w3.org/2000/svg" width="24" height="24" version="1.1">
 <path style="opacity:0.2" d="m5 2.5c-0.554 0-1 0.446-1 1v18c0 0.554 0.446 1 1 1h14c0.554 0 1-0.446 1-1v-13l-6-6z"/>
 <path style="fill:#e67e80" d="m5 2c-0.554 0-1 0.446-1 1v18c0 0.554 0.446 1 1 1h14c0.554 0 1-0.446 1-1v-13l-5-1-1-5z"/>
 <path style="opacity:0.2" d="m20 8.5-6-6v5c0 0.554 0.446 1 1 1z"/>
 <path style="fill:#e67e80" d="m20 8-6-6v5c0 0.554 0.446 1 1 1z"/>
 <path style="fill:#d3c6aa;opacity:0.2" d="m5 2c-0.554 0-1 0.446-1 1v0.5c0-0.554 0.446-1 1-1h9v-0.5h-9z"/>
 <path style="opacity:0.2" d="m7.725 12.5-0.714 0.799 2.692 2.407-2.703 2.556 0.736 0.778 3.55-3.357zm2.857 0-0.714 0.799 2.692 2.407-2.703 2.556 0.736 0.778 3.55-3.357zm2.857 0-0.714 0.799 2.692 2.407-2.703 2.556 0.736 0.778 3.55-3.357z"/>
 <path style="fill:#e69875" d="m7.725 12-0.714 0.799 2.692 2.407-2.703 2.556 0.736 0.778 3.55-3.357zm2.857 0-0.714 0.799 2.692 2.407-2.703 2.556 0.736 0.778 3.55-3.357zm2.857 0-0.714 0.799 2.692 2.407-2.703 2.556 0.736 0.778 3.55-3.357z"/>
</svg>
