<svg xmlns="http://www.w3.org/2000/svg" width="24" height="24" version="1">
 <rect style="opacity:0.2" width="20" height="21" x="-22.5" y="-23" rx="1" ry="1.05" transform="matrix(0,-1,-1,0,0,0)"/>
 <rect style="fill:#374145" width="20" height="21" x="-22" y="-23" rx="1" ry="1.05" transform="matrix(0,-1,-1,0,0,0)"/>
 <path style="fill:#83c092" d="m 20,6 h -3 v 2 h 3 z"/>
 <path style="fill:#7fbbb3" d="m 20,9 h -3 v 2 h 3 z"/>
 <path style="fill:#495156" d="m 20,12 h -3 v 2 h 3 z"/>
 <path style="fill:#dbbc7f" d="M 8,15 H 5 v 2 h 3 z"/>
 <path style="fill:#e69875" d="M 12,15 H 8.9999999 v 2 H 12 Z"/>
 <path style="fill:#495156" d="m 20,15 h -3 v 2 h 3 z"/>
 <path style="fill:#d699b6" d="m 16,14 h -3 v -2 h 3 z"/>
 <path style="fill:#d699b6" d="m 16,17 h -3 v -2 h 3 z"/>
 <path style="fill:#e69875" d="M 12,12 H 8.9999999 v 2 H 12 Z"/>
 <path style="fill:#dbbc7f" d="M 12,9 H 8.9999999 v 2 H 12 Z"/>
 <path style="opacity:0.2" d="M 17 8 L 17 8.5 L 20 8.5 L 20 8 L 17 8 z M 9 11 L 9 11.5 L 12 11.5 L 12 11 L 9 11 z M 17 11 L 17 11.5 L 20 11.5 L 20 11 L 17 11 z M 9 14 L 9 14.5 L 12 14.5 L 12 14 L 9 14 z M 13 14 L 13 14.5 L 16 14.5 L 16 14 L 13 14 z M 17 14 L 17 14.5 L 20 14.5 L 20 14 L 17 14 z M 5 17 L 5 17.5 L 8 17.5 L 8 17 L 5 17 z M 9 17 L 9 17.5 L 12 17.5 L 12 17 L 9 17 z M 13 17 L 13 17.5 L 16 17.5 L 16 17 L 13 17 z M 17 17 L 17 17.5 L 20 17.5 L 20 17 L 17 17 z"/>
 <path style="fill:#d3c6aa;opacity:0.1" d="M 3.0507812 2 C 2.4690813 2 2 2.446 2 3 L 2 3.5 C 2 2.946 2.4690813 2.5 3.0507812 2.5 L 21.949219 2.5 C 22.530919 2.5 23 2.946 23 3.5 L 23 3 C 23 2.446 22.530919 2 21.949219 2 L 3.0507812 2 z"/>
</svg>
