<svg xmlns="http://www.w3.org/2000/svg" width="24" height="24" version="1">
 <circle style="opacity:0.2" cx="12" cy="12.5" r="10"/>
 <circle style="fill:#414b50" cx="12" cy="12" r="10"/>
 <path style="opacity:0.2;fill:none;stroke:#1e2326" d="m 12,18.749786 -2.95,-4.75 2.95,-1.525 2.95,1.525 z m 5.75,-9.25 -5.75,9.25 -2.95,-4.75 z m -11.5,0 5.75,9.25 2.95,-4.75 z"/>
 <path style="opacity:0.1;fill:#d3c6aa" d="M 12,2 A 10,10 0 0 0 2,12 10,10 0 0 0 2.0107422,12.291016 10,10 0 0 1 12,2.5 10,10 0 0 1 21.989258,12.208985 10,10 0 0 0 22,12 10,10 0 0 0 12,2 Z"/>
 <path style="fill:none;stroke:#e67e80" d="M 6.25,9 12,18.25 14.95,13.5 Z"/>
 <path style="fill:none;stroke:#83c092" d="M 17.75,9 12,18.25 9.05,13.5 Z"/>
 <path style="fill:none;stroke:#d3c6aa" d="M 12,18.25 9.05,13.5 12,11.975 14.95,13.5 Z"/>
</svg>
