<svg xmlns="http://www.w3.org/2000/svg" width="24" height="24" version="1.1">
 <rect style="opacity:0.2" width="22" height="8" x="1" y="14.5" rx="1.5" ry="1.5"/>
 <rect style="fill:#a7c080" width="2" height="19" x="13" y="2"/>
 <rect style="fill:#dbbc7f" width="2" height="19" x="11" y="2"/>
 <rect style="fill:#d699b6" width="2" height="19" x="17" y="2"/>
 <rect style="fill:#495156" width="2" height="19" x="15" y="2"/>
 <rect style="fill:#e69875" width="2" height="19" x="5" y="2"/>
 <rect style="fill:#495156" width="2" height="19" x="3" y="2"/>
 <rect style="fill:#e69875" width="2" height="19" x="9" y="2"/>
 <rect style="fill:#e67e80" width="2" height="19" x="7" y="2"/>
 <rect style="fill:#495156" width="2" height="19" x="19" y="2"/>
 <rect style="fill:#d3c6aa" width="22" height="8" x="1" y="14" rx="1.5" ry="1.5"/>
 <path style="opacity:0.2;fill:none;stroke:#1e2326" d="m 4,21 h 1.5 v -5 h 7 v 5 h 3 v -5 h 3.000102 v 5 H 20"/>
 <path style="fill:none;stroke:#d3c6aa" d="m 4,20.5 h 1.5 v -5 h 7 v 5 h 3 v -5 h 3.000102 v 5 H 20"/>
 <path style="opacity:0.2;fill:#d3c6aa" d="M 2.5,14 C 1.669,14 1,14.669 1,15.5 V 16 c 0,-0.831 0.669,-1.5 1.5,-1.5 h 19 c 0.831,0 1.5,0.669 1.5,1.5 V 15.5 C 23,14.669 22.331,14 21.5,14 Z"/>
 <rect style="opacity:0.1;fill:#d3c6aa" width="18" height=".5" x="3" y="2"/>
</svg>
