<?xml version="1.0" encoding="UTF-8"?>
<svg width="64" height="64" version="1.1" viewBox="0 0 16.933 16.933" xmlns="http://www.w3.org/2000/svg" xmlns:cc="http://creativecommons.org/ns#" xmlns:dc="http://purl.org/dc/elements/1.1/" xmlns:rdf="http://www.w3.org/1999/02/22-rdf-syntax-ns#" xmlns:xlink="http://www.w3.org/1999/xlink">
 <metadata>
  <rdf:RDF>
   <cc:Work rdf:about="">
    <dc:format>image/svg+xml</dc:format>
    <dc:type rdf:resource="http://purl.org/dc/dcmitype/StillImage"/>
    <dc:title/>
   </cc:Work>
  </rdf:RDF>
 </metadata>
 <defs>
  <linearGradient id="i" x1="400.4" x2="400.4" y1="545.62" y2="517.62" gradientTransform="matrix(.41967 0 0 .41967 -173.34 -178.23)" gradientUnits="userSpaceOnUse">
   <stop stop-color="#d3c6aa" offset="0"/>
   <stop stop-color="#d699b6" offset="1"/>
  </linearGradient>
  <linearGradient id="f" x1="400.4" x2="400.4" y1="545.62" y2="517.62" gradientTransform="matrix(.43343 0 0 .43343 -193.09 -179.69)" gradientUnits="userSpaceOnUse">
   <stop stop-color="#495156" offset="0"/>
   <stop stop-color="#e67e80" offset="1"/>
  </linearGradient>
  <linearGradient id="linearGradient1407" x1="400.4" x2="400.4" y1="545.62" y2="517.62" gradientTransform="matrix(.41967 0 0 .41967 -173.34 -178.23)" gradientUnits="userSpaceOnUse" xlink:href="#i"/>
  <linearGradient id="linearGradient1409" x1="400.4" x2="400.4" y1="545.62" y2="517.62" gradientTransform="matrix(.43343 0 0 .43343 -193.09 -179.69)" gradientUnits="userSpaceOnUse" xlink:href="#f"/>
  <style type="text/css"/>
  <linearGradient id="linearGradient1890" x1="8.4665" x2="3.1749" y1="9.2602" y2="9.2602" gradientTransform="matrix(4.8099 0 0 4.8099 -8.7244 -8.6947)" gradientUnits="userSpaceOnUse">
   <stop offset="0"/>
   <stop stop-opacity="0" offset="1"/>
  </linearGradient>
  <style type="text/css"/>
  <style type="text/css"/>
  <style type="text/css"/>
  <filter id="filter1057" x="-.027" y="-.027" width="1.054" height="1.054" color-interpolation-filters="sRGB">
   <feGaussianBlur stdDeviation="0.61875"/>
  </filter>
  <linearGradient id="linearGradient1053" x1="-127" x2="-72" y1="60" y2="5" gradientTransform="matrix(.26458 0 0 .26458 34.792 -.13493)" gradientUnits="userSpaceOnUse">
   <stop stop-color="#e67e80" offset="0"/>
   <stop stop-color="#e67e80" offset="1"/>
  </linearGradient>
  <style type="text/css"/>
  <style type="text/css"/>
  <style type="text/css"/>
 </defs>
 <style type="text/css">.st0{opacity:0.15;fill:#45443c;}
	.st1{fill:#dbbc7f;}
	.st2{fill:#dbbc7f;}
	.st3{fill:none;stroke:#45443c;stroke-linecap:round;stroke-linejoin:round;stroke-miterlimit:10;}
	.st4{fill:#e69875;}
	.st5{fill:#e69875;}
	.st6{fill:#d699b6;stroke:#45443c;stroke-linecap:round;stroke-linejoin:round;stroke-miterlimit:10;}
	.st7{fill:#d699b6;stroke:#45443c;stroke-linecap:round;stroke-linejoin:round;stroke-miterlimit:10;}
	.st8{fill:#dbbc7f;}
	.st9{fill:#d3c6aa;}
	.st10{fill:#d3c6aa;}
	.st11{fill:#e69875;}
	.st12{fill:#e69875;}
	.st13{fill:#e69875;}
	.st14{fill:#dbbc7f;}
	.st15{fill:#dbbc7f;}
	.st16{fill:#d3c6aa;}
	.st17{fill:#e69875;stroke:#45443c;stroke-linecap:round;stroke-linejoin:round;stroke-miterlimit:10;}
	.st18{fill:#d3c6aa;}
	.st19{fill:#d3c6aa;}
	.st20{fill:#d3c6aa;}
	.st21{fill:#d3c6aa;}
	.st22{fill:#d699b6;}
	.st23{fill:#d699b6;}
	.st24{fill:#dbbc7f;stroke:#45443c;stroke-linecap:round;stroke-linejoin:round;stroke-miterlimit:10;}
	.st25{fill:#a7c080;stroke:#45443c;stroke-linecap:round;stroke-linejoin:round;stroke-miterlimit:10;}
	.st26{fill:#d3c6aa;stroke:#45443c;stroke-linecap:round;stroke-linejoin:round;stroke-miterlimit:10;}
	.st27{fill:#83c092;stroke:#45443c;stroke-linecap:round;stroke-linejoin:round;stroke-miterlimit:10;}
	.st28{fill:#e69875;stroke:#45443c;stroke-linecap:round;stroke-linejoin:round;stroke-miterlimit:10;}
	.st29{fill:#e69875;stroke:#45443c;stroke-linecap:round;stroke-linejoin:round;stroke-miterlimit:10;}
	.st30{fill:#e69875;}
	.st31{fill:#e69875;}
	.st32{fill:none;stroke:#e69875;stroke-linecap:round;stroke-linejoin:round;stroke-miterlimit:10;}
	.st33{fill:#d3c6aa;stroke:#45443c;stroke-linecap:round;stroke-linejoin:round;stroke-miterlimit:10;}
	.st34{fill:#e69875;stroke:#45443c;stroke-linecap:round;stroke-linejoin:round;stroke-miterlimit:10;}
	.st35{fill:#e67e80;}
	.st36{fill:#d3c6aa;stroke:#45443c;stroke-linecap:round;stroke-linejoin:round;stroke-miterlimit:10;}
	.st37{fill:#d3c6aa;}
	.st38{fill:#d699b6;}
	.st39{fill:#dbbc7f;}
	.st40{fill:none;stroke:#e69875;stroke-linecap:round;stroke-linejoin:round;stroke-miterlimit:10;}
	.st41{fill:#dbbc7f;stroke:#45443c;stroke-linecap:round;stroke-linejoin:round;stroke-miterlimit:10;}
	.st42{fill:#a7c080;stroke:#45443c;stroke-linecap:round;stroke-linejoin:round;stroke-miterlimit:10;}
	.st43{fill:#7fbbb3;}
	.st44{fill:#7fbbb3;}
	.st45{fill:#7fbbb3;stroke:#45443c;stroke-linecap:round;stroke-linejoin:round;stroke-miterlimit:10;}
	.st46{fill:#d699b6;}
	.st47{fill:#7fbbb3;stroke:#45443c;stroke-linecap:round;stroke-linejoin:round;stroke-miterlimit:10;}
	.st48{fill:#7fbbb3;stroke:#45443c;stroke-linecap:round;stroke-linejoin:round;stroke-miterlimit:10;}
	.st49{fill:#7fbbb3;}
	.st50{fill:#7fbbb3;}
	.st51{fill:#e69875;}
	.st52{fill:#e69875;stroke:#45443c;stroke-linecap:round;stroke-linejoin:round;stroke-miterlimit:10;}
	.st53{fill:#495156;}
	.st54{fill:#7fbbb3;}
	.st55{fill:#495156;}
	.st56{fill:#495156;}
	.st57{fill:#d3c6aa;stroke:#45443c;stroke-linecap:round;stroke-linejoin:round;stroke-miterlimit:10;}
	.st58{fill:#a7c080;}
	.st59{fill:#e69875;}
	.st60{fill:#a7c080;}
	.st61{fill:#7fbbb3;}
	.st62{fill:#7fbbb3;}
	.st63{fill:#d699b6;stroke:#45443c;stroke-linecap:round;stroke-linejoin:round;stroke-miterlimit:10;}
	.st64{fill:#d699b6;stroke:#45443c;stroke-linecap:round;stroke-linejoin:round;stroke-miterlimit:10;}
	.st65{fill:#a7c080;}
	.st66{fill:#a7c080;}
	.st67{fill:#a7c080;}
	.st68{fill:#7fbbb3;}
	.st69{fill:#7fbbb3;}
	.st70{fill:#d3c6aa;stroke:#45443c;stroke-linecap:round;stroke-linejoin:round;stroke-miterlimit:10;}
	.st71{fill:#d3c6aa;}
	.st72{fill:none;stroke:#45443c;stroke-linejoin:round;stroke-miterlimit:10;}
	.st73{fill:none;stroke:#45443c;stroke-linecap:round;stroke-linejoin:round;stroke-miterlimit:10;}
	.st74{fill:#e67e80;stroke:#45443c;stroke-linecap:round;stroke-linejoin:round;stroke-miterlimit:10;}
	.st75{fill:none;stroke:#45443c;stroke-miterlimit:10;}
	.st76{fill:#e69875;stroke:#45443c;stroke-linecap:round;stroke-linejoin:round;stroke-miterlimit:10;}
	.st77{fill:#45443c;stroke:#45443c;stroke-linecap:round;stroke-linejoin:round;stroke-miterlimit:10;}
	.st78{fill:#d699b6;}
	.st79{fill:#495156;}
	.st80{fill:#495156;stroke:#45443c;stroke-linecap:round;stroke-linejoin:round;stroke-miterlimit:10;}
	.st81{fill:#d699b6;}
	.st82{fill:#e69875;stroke:#45443c;stroke-linecap:round;stroke-linejoin:round;stroke-miterlimit:10;}
	.st83{fill:none;stroke:#45443c;stroke-linejoin:round;stroke-miterlimit:10;}
	.st84{fill:#d699b6;stroke:#45443c;stroke-linecap:round;stroke-linejoin:round;stroke-miterlimit:10;}
	.st85{fill:#d699b6;stroke:#45443c;stroke-linecap:round;stroke-linejoin:round;stroke-miterlimit:10;}
	.st86{fill:#d699b6;}
	.st87{fill:#d3c6aa;stroke:#45443c;stroke-linecap:round;stroke-linejoin:round;stroke-miterlimit:10;}
	.st88{fill:#7fbbb3;}
	.st89{fill:none;stroke:#45443c;stroke-width:1.0064;stroke-linecap:round;stroke-linejoin:round;stroke-miterlimit:10;}
	.st90{fill:#7fbbb3;}
	.st91{fill:#7fbbb3;}
	.st92{fill:#7fbbb3;stroke:#45443c;stroke-linecap:round;stroke-linejoin:round;stroke-miterlimit:10;}
	.st93{fill:#a7c080;stroke:#45443c;stroke-linecap:round;stroke-linejoin:round;stroke-miterlimit:10;}
	.st94{fill:#d3c6aa;stroke:#45443c;stroke-linejoin:round;stroke-miterlimit:10;}
	.st95{fill:#d3c6aa;stroke:#45443c;stroke-miterlimit:10;}
	.st96{fill:#384b55;}
	.st97{fill:#7fbbb3;}
	.st98{fill:#7fbbb3;stroke:#45443c;stroke-linecap:round;stroke-linejoin:round;stroke-miterlimit:10;}
	.st99{fill:#7fbbb3;stroke:#45443c;stroke-linecap:round;stroke-linejoin:round;stroke-miterlimit:10;}
	.st100{fill:#d699b6;stroke:#45443c;stroke-linecap:round;stroke-linejoin:round;stroke-miterlimit:10;}
	.st101{fill:#495156;}
	.st102{fill:#495156;}
	.st103{fill:#495156;stroke:#45443c;stroke-linecap:round;stroke-linejoin:round;stroke-miterlimit:10;}
	.st104{fill:#d3c6aa;stroke:#45443c;stroke-linecap:round;stroke-linejoin:round;stroke-miterlimit:10;}
	.st105{fill:#7fbbb3;}
	.st106{fill:#45443c;}
	.st107{fill:#e69875;}
	.st108{fill:#495156;stroke:#45443c;stroke-linecap:round;stroke-linejoin:round;stroke-miterlimit:10;}
	.st109{fill:#dbbc7f;stroke:#45443c;stroke-linecap:round;stroke-linejoin:round;stroke-miterlimit:10;}</style>
 <rect transform="scale(.26458)" x="4.5" y="4.5" width="55" height="55" ry="15" fill="#1e2326" filter="url(#filter1057)" opacity=".3" stroke-linecap="round" stroke-width="2.7444"/>
 <rect x="1.1906" y="1.1906" width="14.552" height="14.552" ry="3.9687" fill="url(#linearGradient1053)" stroke-linecap="round" stroke-width=".72611"/>
 <g transform="translate(-21.834 .89695)" fill="#495156" stroke-width=".26458">
  <circle cx="-330.35" cy="-328.38" r="0"/>
  <circle cx="-312.11" cy="-326.25" r="0"/>
  <circle cx="-306.02" cy="-333.07" r="0"/>
  <circle cx="-308.84" cy="-326.01" r="0"/>
 </g>
 <circle cx="-5.2346" cy="44.956" r="0" fill="url(#linearGradient1407)" image-rendering="optimizeSpeed" stroke-width=".26458"/>
 <circle cx="-19.466" cy="50.818" r="0" fill="none" image-rendering="optimizeSpeed" stroke="url(#linearGradient1409)" stroke-width=".56347"/>
 <g transform="translate(-21.834 .89695)" fill="#495156" stroke-width=".26458">
  <circle cx="-330.35" cy="-328.38" r="0"/>
  <circle cx="-312.11" cy="-326.25" r="0"/>
  <circle cx="-306.02" cy="-333.07" r="0"/>
  <circle cx="-308.84" cy="-326.01" r="0"/>
 </g>
 <circle cx="-5.2346" cy="44.956" r="0" fill="url(#linearGradient1407)" image-rendering="optimizeSpeed" stroke-width=".26458"/>
 <circle cx="-19.466" cy="50.818" r="0" fill="none" image-rendering="optimizeSpeed" stroke="url(#linearGradient1409)" stroke-width=".56347"/>
 <g transform="translate(-20.675)" fill="#495156">
  <g stroke-width=".26458">
   <circle cx="-330.35" cy="-328.38" r="0"/>
   <circle cx="-330.35" cy="-328.37" r="0"/>
   <circle cx="-330.35" cy="-328.37" r="0"/>
   <circle cx="-352.63" cy="-336.83" r="0"/>
  </g>
  <g transform="translate(32.665,-10.979)" stroke-width=".26458">
   <circle cx="-330.35" cy="-328.38" r="0"/>
   <circle cx="-312.11" cy="-326.25" r="0"/>
   <circle cx="-306.02" cy="-333.07" r="0"/>
   <circle cx="-308.84" cy="-326.01" r="0"/>
  </g>
  <g transform="matrix(.26458 0 0 .26458 4.6401e-6 4.6401e-6)">
   <circle cx="-1331.1" cy="-1237.8" r="0"/>
   <circle cx="-1262.2" cy="-1229.7" r="0"/>
   <circle cx="-1239.2" cy="-1255.5" r="0"/>
   <circle cx="-1249.8" cy="-1228.8" r="0"/>
  </g>
  <g transform="translate(-21.833 .89722)" stroke-width=".26458">
   <circle cx="-330.35" cy="-328.38" r="0"/>
   <circle cx="-312.11" cy="-326.25" r="0"/>
   <circle cx="-306.02" cy="-333.07" r="0"/>
   <circle cx="-308.84" cy="-326.01" r="0"/>
  </g>
 </g>
 <path d="m11.463 6.4336c-0.03522 0-0.06377 0.028549-0.06377 0.063766v0.38259c0 0.035453 0.02856 0.063765 0.06377 0.063765h0.12753c0.03522 0 0.06376-0.028549 0.06376-0.063765v-0.38259c0-0.035216-0.02855-0.063766-0.06376-0.063766zm-1.1986 0.4966c-0.01702-9.69e-5 -0.03336 0.0066-0.04541 0.018619l-0.09004 0.090036c-0.02497 0.024919-0.02497 0.065377 0 0.090292l0.27036 0.27036c0.02492 0.02497 0.06538 0.02497 0.09029 0l0.09004-0.090036c0.02497-0.024919 0.02497-0.065378 0-0.090292l-0.27036-0.27036c-0.01186-0.011988-0.02803-0.018696-0.04489-0.018619zm2.5246 0c-0.01675-7.7e-6 -0.03284 0.00671-0.04463 0.018619l-0.27037 0.27036c-0.02497 0.024919-0.02497 0.065378 0 0.090292l0.09004 0.090036c0.02489 0.024817 0.06515 0.024817 0.09004 0l0.27036-0.27036c0.02497-0.024919 0.02497-0.065377 0-0.090292l-0.09004-0.090036c-0.01204-0.012014-0.02839-0.018722-0.04541-0.018619zm-1.2623 0.52364c-0.49303 0-0.89271 0.39968-0.89271 0.89271 0 0.49303 0.39968 0.89271 0.89271 0.89271 0.49303 0 0.89271-0.39968 0.89271-0.89271 0-0.49303-0.39968-0.89271-0.89271-0.89271zm-1.8492 0.76518c-0.035216 0-0.06377 0.028549-0.06377 0.063765v0.12753c0 0.035453 0.028564 0.063765 0.06377 0.063765h0.38259c0.03522 0 0.06377-0.028549 0.06377-0.063765v-0.12753c0-0.035216-0.02854-0.063765-0.06377-0.063765zm3.3158 0c-0.03522 0-0.06376 0.028549-0.06376 0.063765v0.12753c0 0.035453 0.02856 0.063765 0.06376 0.063765h0.38259c0.03522 0 0.06376-0.028549 0.06376-0.063765v-0.12753c0-0.035216-0.02855-0.063765-0.06376-0.063765zm-2.5486 1.0557c-0.01703 2.55e-5 -0.03336 0.00681-0.04541 0.018875l-0.27036 0.27036c-0.02497 0.024919-0.02497 0.065377 0 0.090292l0.09004 0.090036c0.02492 0.02497 0.06538 0.02497 0.09029 0l0.27036-0.27036c0.02497-0.024919 0.02497-0.065377 0-0.090292l-0.09004-0.090036c-0.01184-0.012039-0.02801-0.018824-0.0449-0.018875zm2.164 0c-0.01678 1.174e-4 -0.03285 0.00691-0.04463 0.018875l-0.09029 0.090036c-0.02497 0.024919-0.02497 0.065378 0 0.090292l0.27036 0.27036c0.02492 0.02497 0.06538 0.02497 0.09029 0l0.09029-0.090036c0.02497-0.024919 0.02497-0.065378 0-0.090292l-0.27037-0.27036c-0.01209-0.012116-0.02854-0.018926-0.04566-0.018875zm-1.1457 0.47467c-0.03522 0-0.06377 0.028549-0.06377 0.063766v0.38259c0 0.03546 0.02856 0.06377 0.06377 0.06377h0.12753c0.03522 0 0.06376-0.02855 0.06376-0.06377v-0.38259c0-0.035216-0.02855-0.063766-0.06376-0.063766z" color="#1e2326" fill="#d3c6aa" overflow="visible" stroke-width=".25506" style="isolation:auto;mix-blend-mode:normal"/>
 <path transform="scale(.26458)" d="m19.5 4.5c-8.31 0-15 6.69-15 15v25c0 8.31 6.69 15 15 15h12.498v-55h-12.498z" fill="url(#linearGradient1890)" opacity=".3"/>
 <path d="m5.5235 6.4336a1.9129 1.9129 0 0 0-1.9035 1.9129 1.9129 1.9129 0 0 0 1.9129 1.9129 1.9129 1.9129 0 0 0 0.97791-0.26901 1.6579 1.6579 0 0 1-0.21271 0.013949 1.6579 1.6579 0 0 1-1.6579-1.6579 1.6579 1.6579 0 0 1 1.6579-1.6579 1.6579 1.6579 0 0 1 0.21222 0.013949 1.9129 1.9129 0 0 0-0.97743-0.26901 1.9129 1.9129 0 0 0-0.00945 0z" fill="#d3c6aa" stroke-width=".19129"/>
 <g transform="matrix(.26458 0 0 .26458 -19.31 -1.0374)" fill="#495156">
  <circle cx="-1248.7" cy="-1241.6" r="0"/>
  <circle cx="-149.15" cy="23.855" r="0" fill-rule="evenodd"/>
  <circle cx="-1248.7" cy="-1241.6" r="0"/>
  <circle cx="-149.15" cy="23.855" r="0" fill-rule="evenodd"/>
  <circle cx="-1150.9" cy="-1256.6" r="0"/>
  <circle cx="-51.327" cy="8.8744" r="0" fill-rule="evenodd"/>
  <g transform="matrix(3.7796,0,0,3.7796,167.86,4.61)" stroke-width=".26458">
   <g transform="translate(-.0272 .0065001)">
    <circle cx="-330.35" cy="-328.38" r="0"/>
    <circle cx="-312.11" cy="-326.25" r="0"/>
    <circle cx="-306.02" cy="-333.07" r="0"/>
    <circle cx="-308.84" cy="-326.01" r="0"/>
    <circle cx="-330.35" cy="-328.38" r="0"/>
    <circle cx="-312.11" cy="-326.25" r="0"/>
    <circle cx="-306.02" cy="-333.07" r="0"/>
    <circle cx="-308.84" cy="-326.01" r="0"/>
   </g>
   <g transform="translate(-.02705 .0064503)">
    <circle cx="-330.35" cy="-328.38" r="0"/>
    <circle cx="-312.11" cy="-326.25" r="0"/>
    <circle cx="-306.02" cy="-333.07" r="0"/>
    <circle cx="-308.84" cy="-326.01" r="0"/>
   </g>
  </g>
 </g>
</svg>
