<?xml version="1.0" encoding="UTF-8"?>
<svg id="Flamingo" width="64" height="64" enable-background="new 0 0 1024 1024" image-rendering="optimizeSpeed" version="1.1" viewBox="0 0 64 64" xmlns="http://www.w3.org/2000/svg" xmlns:cc="http://creativecommons.org/ns#" xmlns:dc="http://purl.org/dc/elements/1.1/" xmlns:rdf="http://www.w3.org/1999/02/22-rdf-syntax-ns#">
 <metadata>
  <rdf:RDF>
   <cc:Work rdf:about="">
    <dc:format>image/svg+xml</dc:format>
    <dc:type rdf:resource="http://purl.org/dc/dcmitype/StillImage"/>
   </cc:Work>
  </rdf:RDF>
 </metadata>
 <defs>
  <filter id="d-3" x="-.038771" y="-.033599" width="1.0775" height="1.0672" color-interpolation-filters="sRGB">
   <feGaussianBlur stdDeviation="0.42001774"/>
  </filter>
  <style type="text/css"/>
  <style type="text/css"/>
  <filter id="filter1057" x="-.027" y="-.027" width="1.054" height="1.054" color-interpolation-filters="sRGB">
   <feGaussianBlur stdDeviation="0.61875"/>
  </filter>
  <linearGradient id="linearGradient1053" x1="-127" x2="-72" y1="60" y2="5" gradientTransform="translate(131.5 -64.51)" gradientUnits="userSpaceOnUse">
   <stop stop-color="#e69875" offset="0"/>
   <stop stop-color="#e67e80" offset=".50594"/>
   <stop stop-color="#d699b6" offset="1"/>
  </linearGradient>
 </defs>
 <rect transform="matrix(1 0 0 -1 -3.9699 58.827)" x="8.4699" y="-.67293" width="55" height="55" ry="15" fill="#1e2326" filter="url(#filter1057)" opacity=".3" stroke-linecap="round" stroke-width="2.7444"/>
 <rect transform="scale(1,-1)" x="4.5" y="-59.5" width="55" height="55" ry="15" fill="url(#linearGradient1053)" stroke-linecap="round" stroke-width="2.7444"/>
 <g transform="matrix(.61538 0 0 .73077 81.122 18.546)" fill="#e67e80">
  <g transform="translate(0 -.004)">
   <g transform="translate(1,1)">
    <g opacity=".1">
     <!-- color: #a7c080 --></g>
   </g>
  </g>
 </g>
 <g transform="matrix(.61538 0 0 .73077 71.122 11.543)" fill="#e67e80">
  <g transform="translate(1,1)">
   <g opacity=".1">
    <!-- color: #a7c080 --></g>
  </g>
 </g>
 <g transform="translate(8 6.998)">
  <rect x="15" y="14" width="26" height="30.002" rx="1.9994" ry="1.9994" filter="url(#d-3)" opacity=".25" style="paint-order:markers stroke fill"/>
  <path d="m17 13.999c-1.1077 0-2 0.89233-2 2v26.004c0 1.1077 0.89233 2 2 2h22c1.1077 0 2-0.89233 2-2v-26.004c0-1.1077-0.89233-2-2-2zm1.002 1.9961a1.0016 1.0016 0 0 1 1 1.002 1.0016 1.0016 0 0 1-1 1.002 1.0016 1.0016 0 0 1-1.002-1.002 1.0016 1.0016 0 0 1 1.002-1.002zm0 6.002a1.0016 1.0016 0 0 1 1 1.002 1.0016 1.0016 0 0 1-1 1.002 1.0016 1.0016 0 0 1-1.002-1.002 1.0016 1.0016 0 0 1 1.002-1.002zm0 5.998a1.0016 1.0016 0 0 1 1 1.002 1.0016 1.0016 0 0 1-1 1.002 1.0016 1.0016 0 0 1-1.002-1.002 1.0016 1.0016 0 0 1 1.002-1.002zm0 6.002a1.0016 1.0016 0 0 1 1 1.002 1.0016 1.0016 0 0 1-1 1.002 1.0016 1.0016 0 0 1-1.002-1.002 1.0016 1.0016 0 0 1 1.002-1.002zm0 5.998a1.0016 1.0016 0 0 1 1 1.002 1.0016 1.0016 0 0 1-1 1.002 1.0016 1.0016 0 0 1-1.002-1.002 1.0016 1.0016 0 0 1 1.002-1.002z" fill="#d3c6aa" opacity=".8" style="paint-order:markers stroke fill"/>
  <path d="m15 19h26.004v0.99782h-26.004zm0 5.9982h26.004v1.0016h-26.004zm0 6.002h26.004v0.99782h-26.004zm0 5.9982h26.004v1.0016h-26.004z" fill="#e67e80" opacity=".25" stroke-width="3.7796" style="paint-order:markers stroke fill"/>
 </g>
 <rect x="15" y="14" width="26" height="30.002" rx="1.9994" ry="1.9994" filter="url(#d-3)" opacity=".25" style="paint-order:markers stroke fill"/>
 <path d="m17 13.999c-1.1077 0-2 0.89233-2 2v26.004c0 1.1077 0.89233 2 2 2h22c1.1077 0 2-0.89233 2-2v-26.004c0-1.1077-0.89233-2-2-2zm1.002 1.9961a1.0016 1.0016 0 0 1 1 1.002 1.0016 1.0016 0 0 1-1 1.002 1.0016 1.0016 0 0 1-1.002-1.002 1.0016 1.0016 0 0 1 1.002-1.002zm0 6.002a1.0016 1.0016 0 0 1 1 1.002 1.0016 1.0016 0 0 1-1 1.002 1.0016 1.0016 0 0 1-1.002-1.002 1.0016 1.0016 0 0 1 1.002-1.002zm0 5.998a1.0016 1.0016 0 0 1 1 1.002 1.0016 1.0016 0 0 1-1 1.002 1.0016 1.0016 0 0 1-1.002-1.002 1.0016 1.0016 0 0 1 1.002-1.002zm0 6.002a1.0016 1.0016 0 0 1 1 1.002 1.0016 1.0016 0 0 1-1 1.002 1.0016 1.0016 0 0 1-1.002-1.002 1.0016 1.0016 0 0 1 1.002-1.002zm0 5.998a1.0016 1.0016 0 0 1 1 1.002 1.0016 1.0016 0 0 1-1 1.002 1.0016 1.0016 0 0 1-1.002-1.002 1.0016 1.0016 0 0 1 1.002-1.002z" fill="#d3c6aa" style="paint-order:markers stroke fill"/>
 <path d="m15 19h26.004v0.99782h-26.004zm0 5.9982h26.004v1.0016h-26.004zm0 6.002h26.004v0.99782h-26.004zm0 5.9982h26.004v1.0016h-26.004z" fill="#e67e80" opacity=".15" stroke-width="3.7796" style="paint-order:markers stroke fill"/>
 <style type="text/css">.st0{opacity:0.15;fill:#45443c;}
	.st1{fill:#dbbc7f;}
	.st2{fill:#dbbc7f;}
	.st3{fill:none;stroke:#45443c;stroke-linecap:round;stroke-linejoin:round;stroke-miterlimit:10;}
	.st4{fill:#e69875;}
	.st5{fill:#e69875;}
	.st6{fill:#d699b6;stroke:#45443c;stroke-linecap:round;stroke-linejoin:round;stroke-miterlimit:10;}
	.st7{fill:#d699b6;stroke:#45443c;stroke-linecap:round;stroke-linejoin:round;stroke-miterlimit:10;}
	.st8{fill:#dbbc7f;}
	.st9{fill:#d3c6aa;}
	.st10{fill:#d3c6aa;}
	.st11{fill:#e69875;}
	.st12{fill:#e69875;}
	.st13{fill:#e69875;}
	.st14{fill:#dbbc7f;}
	.st15{fill:#dbbc7f;}
	.st16{fill:#d3c6aa;}
	.st17{fill:#e69875;stroke:#45443c;stroke-linecap:round;stroke-linejoin:round;stroke-miterlimit:10;}
	.st18{fill:#d3c6aa;}
	.st19{fill:#d3c6aa;}
	.st20{fill:#d3c6aa;}
	.st21{fill:#d3c6aa;}
	.st22{fill:#d699b6;}
	.st23{fill:#d699b6;}
	.st24{fill:#dbbc7f;stroke:#45443c;stroke-linecap:round;stroke-linejoin:round;stroke-miterlimit:10;}
	.st25{fill:#a7c080;stroke:#45443c;stroke-linecap:round;stroke-linejoin:round;stroke-miterlimit:10;}
	.st26{fill:#d3c6aa;stroke:#45443c;stroke-linecap:round;stroke-linejoin:round;stroke-miterlimit:10;}
	.st27{fill:#83c092;stroke:#45443c;stroke-linecap:round;stroke-linejoin:round;stroke-miterlimit:10;}
	.st28{fill:#e69875;stroke:#45443c;stroke-linecap:round;stroke-linejoin:round;stroke-miterlimit:10;}
	.st29{fill:#e69875;stroke:#45443c;stroke-linecap:round;stroke-linejoin:round;stroke-miterlimit:10;}
	.st30{fill:#e69875;}
	.st31{fill:#e69875;}
	.st32{fill:none;stroke:#e69875;stroke-linecap:round;stroke-linejoin:round;stroke-miterlimit:10;}
	.st33{fill:#d3c6aa;stroke:#45443c;stroke-linecap:round;stroke-linejoin:round;stroke-miterlimit:10;}
	.st34{fill:#e69875;stroke:#45443c;stroke-linecap:round;stroke-linejoin:round;stroke-miterlimit:10;}
	.st35{fill:#e67e80;}
	.st36{fill:#d3c6aa;stroke:#45443c;stroke-linecap:round;stroke-linejoin:round;stroke-miterlimit:10;}
	.st37{fill:#d3c6aa;}
	.st38{fill:#d699b6;}
	.st39{fill:#dbbc7f;}
	.st40{fill:none;stroke:#e69875;stroke-linecap:round;stroke-linejoin:round;stroke-miterlimit:10;}
	.st41{fill:#dbbc7f;stroke:#45443c;stroke-linecap:round;stroke-linejoin:round;stroke-miterlimit:10;}
	.st42{fill:#a7c080;stroke:#45443c;stroke-linecap:round;stroke-linejoin:round;stroke-miterlimit:10;}
	.st43{fill:#7fbbb3;}
	.st44{fill:#7fbbb3;}
	.st45{fill:#7fbbb3;stroke:#45443c;stroke-linecap:round;stroke-linejoin:round;stroke-miterlimit:10;}
	.st46{fill:#d699b6;}
	.st47{fill:#7fbbb3;stroke:#45443c;stroke-linecap:round;stroke-linejoin:round;stroke-miterlimit:10;}
	.st48{fill:#7fbbb3;stroke:#45443c;stroke-linecap:round;stroke-linejoin:round;stroke-miterlimit:10;}
	.st49{fill:#7fbbb3;}
	.st50{fill:#7fbbb3;}
	.st51{fill:#e69875;}
	.st52{fill:#e69875;stroke:#45443c;stroke-linecap:round;stroke-linejoin:round;stroke-miterlimit:10;}
	.st53{fill:#495156;}
	.st54{fill:#7fbbb3;}
	.st55{fill:#495156;}
	.st56{fill:#495156;}
	.st57{fill:#d3c6aa;stroke:#45443c;stroke-linecap:round;stroke-linejoin:round;stroke-miterlimit:10;}
	.st58{fill:#a7c080;}
	.st59{fill:#e69875;}
	.st60{fill:#a7c080;}
	.st61{fill:#7fbbb3;}
	.st62{fill:#7fbbb3;}
	.st63{fill:#d699b6;stroke:#45443c;stroke-linecap:round;stroke-linejoin:round;stroke-miterlimit:10;}
	.st64{fill:#d699b6;stroke:#45443c;stroke-linecap:round;stroke-linejoin:round;stroke-miterlimit:10;}
	.st65{fill:#a7c080;}
	.st66{fill:#a7c080;}
	.st67{fill:#a7c080;}
	.st68{fill:#7fbbb3;}
	.st69{fill:#7fbbb3;}
	.st70{fill:#d3c6aa;stroke:#45443c;stroke-linecap:round;stroke-linejoin:round;stroke-miterlimit:10;}
	.st71{fill:#d3c6aa;}
	.st72{fill:none;stroke:#45443c;stroke-linejoin:round;stroke-miterlimit:10;}
	.st73{fill:none;stroke:#45443c;stroke-linecap:round;stroke-linejoin:round;stroke-miterlimit:10;}
	.st74{fill:#e67e80;stroke:#45443c;stroke-linecap:round;stroke-linejoin:round;stroke-miterlimit:10;}
	.st75{fill:none;stroke:#45443c;stroke-miterlimit:10;}
	.st76{fill:#e69875;stroke:#45443c;stroke-linecap:round;stroke-linejoin:round;stroke-miterlimit:10;}
	.st77{fill:#45443c;stroke:#45443c;stroke-linecap:round;stroke-linejoin:round;stroke-miterlimit:10;}
	.st78{fill:#d699b6;}
	.st79{fill:#495156;}
	.st80{fill:#495156;stroke:#45443c;stroke-linecap:round;stroke-linejoin:round;stroke-miterlimit:10;}
	.st81{fill:#d699b6;}
	.st82{fill:#e69875;stroke:#45443c;stroke-linecap:round;stroke-linejoin:round;stroke-miterlimit:10;}
	.st83{fill:none;stroke:#45443c;stroke-linejoin:round;stroke-miterlimit:10;}
	.st84{fill:#d699b6;stroke:#45443c;stroke-linecap:round;stroke-linejoin:round;stroke-miterlimit:10;}
	.st85{fill:#d699b6;stroke:#45443c;stroke-linecap:round;stroke-linejoin:round;stroke-miterlimit:10;}
	.st86{fill:#d699b6;}
	.st87{fill:#d3c6aa;stroke:#45443c;stroke-linecap:round;stroke-linejoin:round;stroke-miterlimit:10;}
	.st88{fill:#7fbbb3;}
	.st89{fill:none;stroke:#45443c;stroke-width:1.0064;stroke-linecap:round;stroke-linejoin:round;stroke-miterlimit:10;}
	.st90{fill:#7fbbb3;}
	.st91{fill:#7fbbb3;}
	.st92{fill:#7fbbb3;stroke:#45443c;stroke-linecap:round;stroke-linejoin:round;stroke-miterlimit:10;}
	.st93{fill:#a7c080;stroke:#45443c;stroke-linecap:round;stroke-linejoin:round;stroke-miterlimit:10;}
	.st94{fill:#d3c6aa;stroke:#45443c;stroke-linejoin:round;stroke-miterlimit:10;}
	.st95{fill:#d3c6aa;stroke:#45443c;stroke-miterlimit:10;}
	.st96{fill:#384b55;}
	.st97{fill:#7fbbb3;}
	.st98{fill:#7fbbb3;stroke:#45443c;stroke-linecap:round;stroke-linejoin:round;stroke-miterlimit:10;}
	.st99{fill:#7fbbb3;stroke:#45443c;stroke-linecap:round;stroke-linejoin:round;stroke-miterlimit:10;}
	.st100{fill:#d699b6;stroke:#45443c;stroke-linecap:round;stroke-linejoin:round;stroke-miterlimit:10;}
	.st101{fill:#495156;}
	.st102{fill:#495156;}
	.st103{fill:#495156;stroke:#45443c;stroke-linecap:round;stroke-linejoin:round;stroke-miterlimit:10;}
	.st104{fill:#d3c6aa;stroke:#45443c;stroke-linecap:round;stroke-linejoin:round;stroke-miterlimit:10;}
	.st105{fill:#7fbbb3;}
	.st106{fill:#45443c;}
	.st107{fill:#e69875;}
	.st108{fill:#495156;stroke:#45443c;stroke-linecap:round;stroke-linejoin:round;stroke-miterlimit:10;}
	.st109{fill:#dbbc7f;stroke:#45443c;stroke-linecap:round;stroke-linejoin:round;stroke-miterlimit:10;}</style>
 <circle cx="-64.431" cy="22.102" r="0" fill="url(#b)" stroke-width="1.6375"/>
 <g transform="translate(-75.784)" fill="#495156">
  <g transform="matrix(3.7796,0,0,3.7796,-1.3999e-6,-1.3999e-6)" stroke-width=".26458">
   <circle cx="-330.38" cy="-328.51" r="0"/>
   <circle cx="-301.71" cy="-344.43" r="0"/>
   <circle cx="-259.01" cy="-348.26" r="0"/>
   <circle cx="31.886" cy="-13.442" r="0" fill-rule="evenodd"/>
   <circle cx="-257.29" cy="-350.65" r="0"/>
   <circle cx="33.611" cy="-15.826" r="0" fill-rule="evenodd"/>
  </g>
  <circle cx="-1248.7" cy="-1241.6" r="0"/>
  <circle cx="-149.15" cy="23.855" r="0" fill-rule="evenodd"/>
  <circle cx="-1248.7" cy="-1241.6" r="0"/>
  <circle cx="-149.15" cy="23.855" r="0" fill-rule="evenodd"/>
 </g>
</svg>
