<svg xmlns="http://www.w3.org/2000/svg" width="64" height="64" version="1.1">
 <rect style="fill:#a7c080" width="5" height="52" x="35" y="5"/>
 <rect style="fill:#dbbc7f" width="5" height="52" x="30" y="5"/>
 <rect style="fill:#d699b6" width="5" height="52" x="45" y="5"/>
 <rect style="fill:#495156" width="5" height="52" x="40" y="5"/>
 <rect style="fill:#e69875" width="5" height="52" x="15" y="5"/>
 <rect style="fill:#495156" width="5" height="52" x="10" y="5"/>
 <rect style="fill:#e69875" width="5" height="52" x="25" y="5"/>
 <rect style="fill:#e67e80" width="5" height="52" x="20" y="5"/>
 <rect style="fill:#495156" width="5" height="52" x="50" y="5"/>
 <rect style="opacity:0.2" width="55" height="22" x="5" y="37" rx="3.75" ry="4.125"/>
 <rect style="fill:#d3c6aa" width="55" height="22" x="5" y="36" rx="3.75" ry="4.125"/>
 <path style="opacity:0.2;fill:none;stroke:#1e2326;stroke-width:3" d="m 12,54.5 h 5.5 v -13 h 16 v 13 h 7 v -13 h 7 v 13 H 53"/>
 <path style="fill:none;stroke:#d3c6aa;stroke-width:3" d="m 12,53.5 h 5.5 v -13 h 16 v 13 h 7 v -13 h 7 v 13 H 53"/>
 <path style="fill:#d3c6aa;opacity:0.2" d="M 8.75 36 C 6.6725001 36 5 37.83975 5 40.125 L 5 41.125 C 5 38.83975 6.6725001 37 8.75 37 L 56.25 37 C 58.3275 37 60 38.83975 60 41.125 L 60 40.125 C 60 37.83975 58.3275 36 56.25 36 L 8.75 36 z"/>
 <rect style="opacity:0.1;fill:#d3c6aa" width="45" height="1" x="10" y="5"/>
</svg>
