<svg xmlns="http://www.w3.org/2000/svg" width="64" height="64" version="1.1">
 <rect style="opacity:0.2" width="56" height="56" x="4" y="5" rx="11.2" ry="11.2"/>
 <rect style="fill:#d3c6aa" width="56" height="56" x="4" y="4" rx="11.2" ry="11.2"/>
 <path style="opacity:0.1" d="M 32,27.75 22,33 32,38.25 22,43.5 V 54 L 32,48.75 42,43.5 V 33 Z"/>
 <path style="fill:#e69875" d="m 32.00161,26.750842 v 10.498436 h -0.003 L 22,32.00004 Z"/>
 <path style="opacity:0.1" d="M 42,12 32,17.25 22,22.5 V 33 L 32,27.75 42,22.5 Z"/>
 <path style="fill:#e69875" d="M 42,11 V 21.501604 L 32.00157,16.249238 Z"/>
 <path style="fill:#e69875" d="m 42,21.501644 -9.99843,5.249198 V 16.249238 Z"/>
 <path style="fill:#495156" d="M 32.00161,16.249238 V 26.750842 L 22,21.501644 Z"/>
 <path style="fill:#495156" d="M 32.00161,47.750842 22,53 V 42.498476 Z"/>
 <path fill="#e67e80" d="M 42,32.000082 V 42.498516 L 32.00157,37.249278 Z"/>
 <path fill="#e67e80" d="m 42,42.498516 -9.99843,5.252368 V 37.249278 Z"/>
 <path fill="#d699b6" d="M 32.00161,37.249278 V 47.750884 L 22,42.498516 31.998402,37.249278 Z"/>
 <path fill="#e67e80" d="m 42,32.00004 -9.99843,5.249238 V 26.750842 Z"/>
 <path style="fill:#e67e80" d="M 32.00161,26.750802 22,32.00004 V 21.501604 Z"/>
 <path style="opacity:0.2;fill:#d3c6aa" d="M 15.199219 4 C 8.9944186 4 4 8.9944186 4 15.199219 L 4 16.199219 C 4 9.9944185 8.9944186 5 15.199219 5 L 48.800781 5 C 55.005581 5 60 9.9944185 60 16.199219 L 60 15.199219 C 60 8.9944186 55.005581 4 48.800781 4 L 15.199219 4 z"/>
</svg>
