<svg xmlns="http://www.w3.org/2000/svg" width="48" height="48" version="1">
 <path fill="#e67e80" d="m24 4h-18c-1.108 0-2 0.892-2 2v18h20z"/>
 <path fill="#83c092" d="m24 4h18c1.108 0 2 0.892 2 2v18h-20z"/>
 <path fill="#dbbc7f" d="m24 44h-18c-1.108 0-2-0.892-2-2v-18h20z"/>
 <path fill="#495156" d="m24 44h18c1.108 0 2-0.892 2-2v-18h-20z"/>
 <path fill="#d3c6aa" opacity=".2" d="m6 4c-1.108 0-2 0.892-2 2v1c0-1.108 0.892-2 2-2h36c1.108 0 2 0.892 2 2v-1c0-1.108-0.892-2-2-2h-36z"/>
 <path opacity=".2" d="m6 45c-1.108 0-2-0.892-2-2v-1c0 1.108 0.892 2 2 2h36c1.108 0 2-0.892 2-2v1c0 1.108-0.892 2-2 2h-36z"/>
 <rect style="fill:#d3c6aa" width="28" height="28" x="10" y="10"/>
 <rect style="opacity:0.2" width="28" height="1" x="10" y="38"/>
</svg>
