<svg xmlns="http://www.w3.org/2000/svg" width="48" height="48" version="1">
 <path style="opacity:0.2" d="M 10,5 C 8.892,5 8,5.892 8,7 v 36 c 0,1.108 0.892,2 2,2 h 28 c 1.108,0 2,-0.892 2,-2 V 17 L 29,16 28,5 Z"/>
 <path style="fill:#384b55" d="M 10,4 C 8.892,4 8,4.892 8,6 v 36 c 0,1.108 0.892,2 2,2 h 28 c 1.108,0 2,-0.892 2,-2 V 16 L 29,15 28,4 Z"/>
 <path style="opacity:0.2" d="m 15,24 v 2 h 18 v -2 z m 0,4 v 2 h 18 v -2 z m 0,4 v 2 h 18 v -2 z m 0,4 v 2 h 11 v -2 z"/>
 <path style="opacity:0.1;fill:#d3c6aa" d="M 10,4 C 8.892,4 8,4.892 8,6 V 7 C 8,5.892 8.892,5 10,5 h 18 l 11,11 h 1 L 28,4 Z"/>
 <path style="opacity:0.2" d="m 28,5 v 10 c 0,1.1046 0.89543,2 2,2 h 10 z"/>
 <path style="fill:#384b55" d="m 28,4 v 10 c 0,1.1046 0.89543,2 2,2 h 10 z"/>
 <path style="fill:#e69875" d="m 15,37 v -2 h 11 v 2 z"/>
 <path style="fill:#dbbc7f" d="m 15,33 v -2 h 18 v 2 z"/>
 <path style="fill:#a7c080" d="m 15,29 v -2 h 18 v 2 z"/>
 <path style="fill:#495156" d="m 15,25 v -2 h 18 v 2 z"/>
</svg>
