<svg xmlns="http://www.w3.org/2000/svg" viewBox="0 0 16 16">
 <g color="#000000" transform="translate(-421.71-531.79)">
  <path fill="#56c6c6" d="m425.71 535.79h2v2h-2z"/>
  <path fill="#76d1d2" d="m423.71 539.79h2v2h-2z"/>
  <path fill="#a2e0e0" d="m431.71 535.79h2v2h-2z"/>
  <path fill="#48c2c2" d="m423.71 535.79h2v2h-2z"/>
  <path fill="#329696" d="m429.71 535.79h2v2h-2z"/>
  <path fill="#76d1d2" d="m427.71 535.79h2v2h-2z"/>
  <path fill="#a2e0e0" d="m427.71 537.79h2v2h-2z"/>
  <path fill="#48c2c2" d="m425.71 537.79h2v2h-2z"/>
  <path fill="#329696" d="m423.71 537.79h2v2h-2z"/>
  <path fill="#76d1d2" d="m431.71 537.79h2v2h-2z"/>
  <path fill="#56c6c6" d="m429.71 537.79h2v2h-2z"/>
  <path fill="#a2e0e0" d="m431.71 539.79h2v2h-2z"/>
  <path fill="#48c2c2" d="m429.71 539.79h2v2h-2z"/>
  <path fill="#329696" d="m427.71 539.79h2v2h-2z"/>
  <path fill="#56c6c6" d="m425.71 539.79h2v2h-2z"/>
  <path fill="#a2e0e0" d="m429.71 541.79h2v2h-2z"/>
  <path fill="#48c2c2" d="m427.71 541.79h2v2h-2z"/>
  <path fill="#329696" d="m425.71 541.79h2v2h-2z"/>
  <path fill="#76d1d2" d="m431.71 541.79h2v2h-2z"/>
  <path fill="#a2e0e0" d="m425.71 543.79h2v2h-2z"/>
  <path fill="#48c2c2" d="m423.71 543.79h2v2h-2z"/>
  <path fill="#329696" d="m433.71 537.79h2v2h-2z"/>
  <path fill="#48c2c2" d="m433.71 539.79h2v2h-2z"/>
  <path fill="#56c6c6" d="m423.71 541.79h2v2h-2z"/>
  <path fill="#76d1d2" d="m433.71 535.79h2v2h-2z"/>
  <path fill="#a2e0e0" d="m423.71 533.79h2v2h-2z"/>
  <path fill="#48c2c2" d="m427.71 533.79h2v2h-2z"/>
  <path fill="#329696" d="m425.71 533.79h2v2h-2z"/>
  <path fill="#76d1d2" d="m431.71 533.79h2v2h-2z"/>
  <path fill="#56c6c6" d="m433.71 533.79h2v2h-2z"/>
  <path fill="#a2e0e0" d="m429.71 533.79h2v2h-2z"/>
  <path fill="#329696" d="m433.71 541.79h2v2h-2z"/>
  <path fill="#a2e0e0" d="m431.71 543.79h2v2h-2z"/>
  <path fill="#329696" d="m429.71 543.79h2v2h-2z"/>
  <g fill="#76d1d2">
   <path d="m427.71 543.79h2v2h-2z"/>
   <path d="m433.71 543.79h2v2h-2z"/>
  </g>
 </g>
</svg>
