<svg xmlns="http://www.w3.org/2000/svg" width="22" height="22" version="1">
 <rect style="opacity:0.2" width="16" height="18" x="3" y="3.5" rx="1" ry="1"/>
 <rect style="fill:#495156" width="16" height="18" x="3" y="3" rx="1" ry="1"/>
 <rect style="fill:#859289" width="10" height="2" x="6" y="1"/>
 <path style="opacity:0.2" d="m 5,5.5 v 4 h 12 v -4 z m 0,5 v 4 h 12 v -4 z m 0,5 v 4 h 12 v -4 z"/>
 <path style="fill:#a7c080" d="M 5,5 V 9 H 17 V 5 Z m 0,5 v 4 h 12 v -4 z m 0,5 v 4 h 12 v -4 z"/>
 <path style="opacity:0.2;fill:#d3c6aa" d="M 6,1 V 1.5 H 16 V 1 Z"/>
 <path style="opacity:0.2;fill:#d3c6aa" d="M 5,5 V 5.5 H 17 V 5 Z m 0,5 v 0.5 H 17 V 10 Z m 0,5 v 0.5 H 17 V 15 Z"/>
</svg>
