<svg xmlns="http://www.w3.org/2000/svg" width="22" height="22" version="1">
 <rect style="opacity:0.2" width="16" height="16" x="-21.5" y="-19" rx="4" ry="5" transform="matrix(0,-1,-1,0,0,0)"/>
 <rect style="fill:#859289" width="16" height="16" x="-17" y="-19" rx="1.5" ry="1.5" transform="matrix(0,-1,-1,0,0,0)"/>
 <rect style="fill:#859289" width="16" height="16" x="-21" y="-19" rx="4" ry="5" transform="matrix(0,-1,-1,0,0,0)"/>
 <rect style="fill:#2e383c" width="12" height="13" x="5" y="3" rx=".5" ry=".5"/>
 <circle style="fill:#495156" cx="7" cy="18" r="1"/>
 <circle style="fill:#495156" cx="16" cy="18" r="1"/>
 <rect style="fill:#495156" width="1" height="1" x="14" y="1"/>
 <circle style="fill:#495156" cx="11.5" cy="18.5" r="1.5"/>
 <path style="opacity:0.1;fill:#d3c6aa" d="M 4.5,1 C 3.669,1 3,1.669 3,2.5 V 3 C 3,2.169 3.669,1.5 4.5,1.5 H 17.5 C 18.331,1.5 19,2.169 19,3 V 2.5 C 19,1.669 18.331,1 17.5,1 Z"/>
</svg>
