<svg xmlns="http://www.w3.org/2000/svg" width="22" height="22" version="1">
 <rect style="opacity:0.2" width="20" height="17" x="-21.5" y="-20" rx="1" ry="1" transform="matrix(0,-1,-1,0,0,0)"/>
 <path style="fill:#4f5b58" d="M 4,1 C 3.446,1 3,1.446 3,2 V 3 H 20 V 2 C 20,1.446 19.554,1 19,1 Z"/>
 <rect style="fill:#2e383c" width="15" height="16" x="4" y="3" rx="1" ry="1"/>
 <circle style="fill:#2e383c" cx="11.5" cy="2" r=".5"/>
 <path style="opacity:0.1;fill:#d3c6aa" d="M 4,1 C 3.446,1 3,1.446 3,2 v 0.5 c 0,-0.554 0.446,-1 1,-1 h 15 c 0.554,0 1,0.446 1,1 V 2 C 20,1.446 19.554,1 19,1 Z"/>
 <path style="fill:#2e383c" d="m 3,3 v 17 c 0,0.554 0.446,1 1,1 h 15 c 0.554,0 1,-0.446 1,-1 V 3 Z"/>
 <rect style="opacity:0.2" width="17" height=".5" x="3" y="3"/>
</svg>
