<svg xmlns="http://www.w3.org/2000/svg" width="48" height="48" version="1">
 <rect style="fill:#d3c6aa" width="40" height="40" x="4" y="4" rx="2" ry="2"/>
 <path fill="#d3c6aa" style="opacity:0.2" d="m4 7v-1c0-1.108 0.892-2 2-2h36c1.108 0 2 0.892 2 2v1c0-1.108-0.892-2-2-2h-36c-1.108 0-2 0.892-2 2z"/>
 <path opacity=".2" d="m4 42v1c0 1.108 0.892 2 2 2h36c1.108 0 2-0.892 2-2v-1c0 1.108-0.892 2-2 2h-36c-1.108 0-2-0.892-2-2z"/>
 <path style="opacity:0.1" d="M 7,8 V 18 H 17 V 8 Z M 7,20 V 30 H 17 V 20 Z m 12,0 V 30 H 29 V 20 Z m 12,0 V 30 H 41 V 20 Z M 7,32 V 42 H 17 V 32 Z m 12,0 V 42 H 29 V 32 Z m 12,0 V 42 H 41 V 32 Z"/>
 <rect style="fill:#d699b6" width="10" height="10" x="19" y="19"/>
 <rect style="fill:#e67e80" width="10" height="10" x="7" y="19"/>
 <rect style="fill:#e69875" width="10" height="10" x="31" y="19"/>
 <rect style="fill:#495156" width="10" height="10" x="19" y="31"/>
 <rect style="fill:#dbbc7f" width="10" height="10" x="7" y="31"/>
 <rect style="fill:#83c092" width="10" height="10" x="31" y="31"/>
 <rect style="fill:#7fbbb3" width="10" height="10" x="7" y="7"/>
</svg>
