<svg xmlns="http://www.w3.org/2000/svg" width="48" height="48" version="1">
 <rect style="opacity:0.2" width="40" height="42" x="-45" y="-45" rx="2" ry="2.1" transform="matrix(0,-1,-1,0,0,0)"/>
 <rect style="fill:#374145" width="40" height="42" x="-44" y="-45" rx="2" ry="2.1" transform="matrix(0,-1,-1,0,0,0)"/>
 <path style="fill:#83c092" d="m 41,13 h -7 v 4 h 7 z"/>
 <path style="fill:#7fbbb3" d="m 41,19 h -7 v 4 h 7 z"/>
 <path style="fill:#495156" d="m 41,25 h -7 v 4 h 7 z"/>
 <path style="fill:#dbbc7f" d="M 14,31 H 7.0000001 v 4 H 14 Z"/>
 <path style="fill:#e69875" d="m 23,31 h -7 v 4 h 7 z"/>
 <path style="fill:#495156" d="m 41,31 h -7 v 4 h 7 z"/>
 <path style="fill:#d699b6" d="m 32,29 h -7 v -4 h 7 z"/>
 <path style="fill:#d699b6" d="m 32,35 h -7 v -4 h 7 z"/>
 <path style="fill:#e69875" d="m 23,25 h -7 v 4 h 7 z"/>
 <path style="fill:#dbbc7f" d="m 23,19 h -7 v 4 h 7 z"/>
 <path style="opacity:0.2" d="m 34,17 v 1 h 7 v -1 z m -18,6 v 1 h 7 v -1 z m 18,0 v 1 h 7 v -1 z m -18,6 v 1 h 7 v -1 z m 9,0 v 1 h 7 v -1 z m 9,0 v 1 h 7 V 29 Z M 7,35 v 1 h 7 v -1 z m 9,0 v 1 h 7 v -1 z m 9,0 v 1 h 7 v -1 z m 9,0 v 1 h 7 v -1 z"/>
 <path style="fill:#d3c6aa;opacity:0.1" d="M 5.0996094 4 C 3.9362094 4 3 4.892 3 6 L 3 7 C 3 5.892 3.9362094 5 5.0996094 5 L 42.900391 5 C 44.063791 5 45 5.892 45 7 L 45 6 C 45 4.892 44.063791 4 42.900391 4 L 5.0996094 4 z"/>
</svg>
