<svg xmlns="http://www.w3.org/2000/svg" width="48" height="48" version="1.1">
 <path style="opacity:0.2" d="m24 5v10h-10l-10 10h10v10l10 10v-10h10l9-9 1-1h-10v-10z"/>
 <path style="fill:#dbbc7f" d="m14 14-10 10h20v-10"/>
 <path style="fill:#e67e80" d="m34 14-10-10v20h10"/>
 <path style="fill:#83c092" d="m14 34 10 10v-20h-10"/>
 <path style="fill:#495156" d="m34 34 10-10h-20v10"/>
 <path style="opacity:0.2;fill:#d3c6aa" d="m24 24v1h19l1-1z"/>
 <path style="fill:#d699b6" d="m34 14-10 10h10z"/>
 <path style="fill:#83c092" d="m14 24v10l10-10z"/>
 <path style="fill:#495156" d="m24 24v10h10z"/>
 <path style="fill:#e69875" d="m14 14 10 10v-10z"/>
 <path style="opacity:0.2;fill:#d3c6aa" d="m24 4v1l10 10v-1l-10-10zm-10 10l-10 10h1l9-9h10v-1h-10z"/>
 <path style="opacity:0.2" d="m24 19-2 4-4 2 4 2 2 4 2-4 4-2-4-2z"/>
 <path style="fill:#d3c6aa" d="m24 18-2 4-4 2 4 2 2 4 2-4 4-2-4-2z"/>
 <path style="fill:#d3c6aa" d="m18 24 4 2 2 4-0-6z"/>
 <path style="fill:#d3c6aa" d="m30 24-4 2-2 4-0-6z"/>
</svg>
