<svg xmlns="http://www.w3.org/2000/svg" width="48" height="48" version="1.1">
 <rect style="opacity:0.2" width="40" height="32" x="4" y="13" ry="4"/>
 <rect style="fill:#e69875" width="40" height="32" x="4" y="12" ry="4"/>
 <path style="fill:#e69875" d="M 8 8 C 5.784 8 4 9.784 4 12 L 4 16 L 44 16 L 44 12 C 44 9.784 42.216 8 40 8 L 8 8 z"/>
 <path style="fill:#d3c6aa;opacity:0.1" d="M 8 8 C 5.784 8 4 9.784 4 12 L 4 13 C 4 10.784 5.784 9 8 9 L 40 9 C 42.216 9 44 10.784 44 13 L 44 12 C 44 9.784 42.216 8 40 8 L 8 8 z"/>
 <rect style="fill:#1e2326" width="4" height="10" x="12" y="4" ry="2"/>
 <rect style="fill:#1e2326" width="4" height="10" x="32" y="4" ry="2"/>
 <rect style="opacity:0.2" width="40" height="1" x="4" y="16"/>
 <rect style="fill:#d3c6aa" width="6" height="6" x="33" y="22" rx="1.5" ry="1.5"/>
 <rect style="fill:#d3c6aa" width="6" height="6" x="17" y="22" rx="1.5" ry="1.5"/>
 <rect style="fill:#d3c6aa" width="6" height="6" x="17" y="30" rx="1.5" ry="1.5"/>
 <rect style="fill:#d3c6aa" width="6" height="6" x="9" y="30" rx="1.5" ry="1.5"/>
 <rect style="fill:#dbbc7f" width="6" height="6" x="33" y="30" rx="1.5" ry="1.5"/>
 <rect style="fill:#dbbc7f" width="6" height="6" x="25" y="22" rx="1.5" ry="1.5"/>
 <path style="fill:none;stroke:#d3c6aa;stroke-width:1px;stroke-linecap:round;stroke-linejoin:round" d="M 25.5,33.5 27.5,35.5 31.5,31.5"/>
</svg>
