<svg xmlns="http://www.w3.org/2000/svg" width="48" height="48" version="1">
 <rect style="fill:#4c3743" width="40" height="40" x="4" y="4" rx="2" ry="2"/>
 <path fill="#d3c6aa" style="opacity:0.1" d="m4 7v-1c0-1.108 0.892-2 2-2h36c1.108 0 2 0.892 2 2v1c0-1.108-0.892-2-2-2h-36c-1.108 0-2 0.892-2 2z"/>
 <path opacity=".2" d="m4 42v1c0 1.108 0.892 2 2 2h36c1.108 0 2-0.892 2-2v-1c0 1.108-0.892 2-2 2h-36c-1.108 0-2-0.892-2-2z"/>
 <rect style="fill:#83c092" width="4" height="4" x="12" y="24"/>
 <rect style="fill:#e67e80" width="4" height="4" x="16" y="24"/>
 <rect style="fill:#495156" width="4" height="4" x="20" y="24"/>
 <rect style="fill:#9da9a0" width="4" height="4" x="24" y="24"/>
 <rect style="fill:#dbbc7f" width="4" height="4" x="28" y="24"/>
 <rect style="fill:#d3c6aa" width="4" height="4" x="32" y="24"/>
 <rect style="fill:#495156" width="4" height="4" x="12" y="20"/>
 <rect style="fill:#d3c6aa" width="4" height="4" x="16" y="20"/>
 <rect style="fill:#83c092" width="4" height="4" x="20" y="20"/>
 <rect style="fill:#d3c6aa" width="4" height="4" x="24" y="20"/>
 <rect style="fill:#9da9a0" width="4" height="4" x="28" y="20"/>
 <rect style="fill:#495156" width="4" height="4" x="32" y="20"/>
 <rect style="fill:#d3c6aa" width="4" height="4" x="12" y="16"/>
 <rect style="fill:#dbbc7f" width="4" height="4" x="16" y="16"/>
 <rect style="fill:#dbbc7f" width="4" height="4" x="20" y="16"/>
 <rect style="fill:#d699b6" width="4" height="4" x="24" y="16"/>
 <rect style="fill:#dbbc7f" width="4" height="4" x="28" y="16"/>
 <rect style="fill:#dbbc7f" width="4" height="4" x="16" y="28"/>
 <rect style="fill:#d699b6" width="4" height="4" x="20" y="28"/>
 <rect style="fill:#e67e80" width="4" height="4" x="24" y="28"/>
 <rect style="fill:#dbbc7f" width="4" height="4" x="28" y="28"/>
 <rect style="fill:#e67e80" width="4" height="4" x="32" y="28"/>
 <rect style="fill:#495156" width="4" height="4" x="20" y="32"/>
 <rect style="fill:#d3c6aa" width="4" height="4" x="24" y="32"/>
 <rect style="fill:#83c092" width="4" height="4" x="28" y="32"/>
 <rect style="fill:#d699b6" width="4" height="4" x="32" y="32"/>
 <rect style="fill:#dbbc7f" width="4" height="4" x="12" y="12"/>
 <rect style="fill:#e67e80" width="4" height="4" x="16" y="12"/>
 <rect style="fill:#dbbc7f" width="4" height="4" x="20" y="12"/>
 <rect style="fill:#495156" width="4" height="4" x="24" y="12"/>
 <path style="opacity:0.2" d="m 12,16 0,1 20,0 0,-1 z m 0,4 0,1 24,0 0,-1 z m 0,4 0,1 24,0 0,-1 z m 0,4 0,1 24,0 0,-1 z m 4,4 0,1 20,0 0,-1 z m 4,4 0,1 16,0 0,-1 z"/>
</svg>
