<svg xmlns="http://www.w3.org/2000/svg" width="48" height="48" version="1.1">
 <rect fill="#83c092" width="10" height="30" x="-44" y="-34" rx="2" ry="2" transform="matrix(0,-1,-1,0,0,0)"/>
 <rect fill="#384b55" width="10" height="30" x="-34" y="-44" rx="2" ry="2" transform="matrix(0,-1,-1,0,0,0)"/>
 <rect fill="#e67e80" width="10" height="30" x="-24" y="-34" rx="2" ry="2" transform="matrix(0,-1,-1,0,0,0)"/>
 <rect fill="#dbbc7f" width="10" height="30" x="-14" y="-44" rx="2" ry="2" transform="matrix(0,-1,-1,0,0,0)"/>
 <path fill="#d3c6aa" opacity=".2" d="m16 4c-1.108 0-2 0.892-2 2v1c0-1.108 0.892-2 2-2h26c1.108 0 2 0.892 2 2v-1c0-1.108-0.892-2-2-2h-26z"/>
 <path fill="#d3c6aa" opacity=".2" d="m6 14c-1.108 0-2 0.892-2 2v1c0-1.108 0.892-2 2-2h26c1.108 0 2 0.892 2 2v-1c0-1.108-0.892-2-2-2h-26z"/>
 <path fill="#d3c6aa" opacity=".2" d="m16 24c-1.108 0-2 0.892-2 2v1c0-1.108 0.892-2 2-2h26c1.108 0 2 0.892 2 2v-1c0-1.108-0.892-2-2-2h-26z"/>
 <path fill="#d3c6aa" opacity=".2" d="m6 34c-1.108 0-2 0.892-2 2v1c0-1.108 0.892-2 2-2h26c1.108 0 2 0.892 2 2v-1c0-1.108-0.892-2-2-2h-26z"/>
 <path opacity=".2" d="m14 12v1c0 1.108 0.892 2 2 2h26c1.108 0 2-0.892 2-2v-1c0 1.108-0.892 2-2 2h-26c-1.108 0-2-0.892-2-2z"/>
 <path opacity=".2" d="m4 22v1c0 1.108 0.892 2 2 2h26c1.108 0 2-0.892 2-2v-1c0 1.108-0.892 2-2 2h-26c-1.108 0-2-0.892-2-2z"/>
 <path opacity=".2" d="m14 32v1c0 1.108 0.892 2 2 2h26c1.108 0 2-0.892 2-2v-1c0 1.108-0.892 2-2 2h-26c-1.108 0-2-0.892-2-2z"/>
 <path opacity=".2" d="m4 42v1c0 1.108 0.892 2 2 2h26c1.108 0 2-0.892 2-2v-1c0 1.108-0.892 2-2 2h-26c-1.108 0-2-0.892-2-2z"/>
</svg>
