<svg xmlns="http://www.w3.org/2000/svg" width="48" height="48" version="1">
 <rect fill="#9da9a0" width="40" height="40" x="4" y="4" rx="2" ry="2"/>
 <path fill="#d3c6aa" opacity=".2" d="m6 4c-1.108 0-2 0.892-2 2v1c0-1.108 0.892-2 2-2h36c1.108 0 2 0.892 2 2v-1c0-1.108-0.892-2-2-2h-36z"/>
 <path opacity=".2" d="m6 45c-1.108 0-2-0.892-2-2v-1c0 1.108 0.892 2 2 2h36c1.108 0 2-0.892 2-2v1c0 1.108-0.892 2-2 2h-36z"/>
 <g style="opacity:0.1" transform="translate(0,1)">
  <path d="m18 27.5 0.000002-7l6-3.5 6 3.5-0.000002 7-6 3.5-6-3.5z"/>
  <path d="m25 10v5.743l6 3.257 5-3z"/>
  <path d="m23 10v5.743l-6 3.257-5-3z"/>
  <path d="m36.974 17.474-4.974 2.871 0.18 6.825 5.098 2.83z"/>
  <path d="m11.304 17.474 4.9738 2.8716-0.17958 6.8245l-5.098 2.83z"/>
  <path d="m25 38v-5.743l6-3.257 5 3z"/>
  <path d="m23 38v-5.743l-6-3.257-5 3z"/>
 </g>
 <g>
  <path fill="#dbbc7f" d="m18 27.5 0.000002-7l6-3.5 6 3.5-0.000002 7-6 3.5-6-3.5z"/>
  <path fill="#a7c080" d="m25 10v5.743l6 3.257 5-3z"/>
  <path fill="#384b55" d="m23 10v5.743l-6 3.257-5-3z"/>
  <path fill="#dbbc7f" d="m36.974 17.474-4.974 2.871 0.18 6.825 5.098 2.83z"/>
  <path fill="#495156" d="m11.304 17.474 4.9738 2.8716-0.17958 6.8245l-5.098 2.83z"/>
  <path fill="#e67e80" d="m25 38v-5.743l6-3.257 5 3z"/>
  <path fill="#d699b6" d="m23 38v-5.743l-6-3.257-5 3z"/>
 </g>
</svg>
