<svg xmlns="http://www.w3.org/2000/svg" width="24" height="24" version="1.1">
 <defs>
  <style id="current-color-scheme" type="text/css">
   .ColorScheme-Text { color:#cfefef; } .ColorScheme-Highlight { color:#3fbdbd; } .ColorScheme-NeutralText { color:#73d0d0; } .ColorScheme-PositiveText { color:#5dc9c9; } .ColorScheme-NegativeText { color:#339b9b; }
  </style>
 </defs>
 <g transform="translate(4,4)">
  <path style="fill:currentColor" class="ColorScheme-NegativeText" d="M 8,1 A 7,7 0 0 0 1,8 7,7 0 0 0 8,15 7,7 0 0 0 15,8 7,7 0 0 0 8,1 Z M 8,6 A 2,2 0 0 1 10,8 2,2 0 0 1 8,10 2,2 0 0 1 6,8 2,2 0 0 1 8,6 Z"/>
 </g>
</svg>
